<?xml version="1.0" encoding="UTF-8"?>
<svg id="Layer_1" xmlns="http://www.w3.org/2000/svg" version="1.1" viewBox="0 0 1000 350">
  <!-- Generator: Adobe Illustrator 29.1.0, SVG Export Plug-In . SVG Version: 2.1.0 Build 142)  -->
  <defs>
    <style>
      .st0 {
        stroke: #fff;
      }

      .st0, .st1 {
        stroke-opacity: 0;
      }

      .st0, .st1, .st2 {
        fill-opacity: 0;
      }

      .st3 {
        fill: #fff;
      }

      .st1 {
        stroke: #000;
      }

      .st4 {
        fill: #0b62db;
      }

      .st5 {
        fill: #10bdff;
      }

      .st6 {
        fill: #1997ff;
      }
    </style>
  </defs>
  <g>
    <path id="b2xC5Wn6qZ" class="st3" d="M383.7,133.7c0-41.4,26.5-71.7,74.4-71.7s43.5,7.9,58,24.3c-2,2-18,18-20,20-8.9-12.2-21.4-18.5-38-18.5-31.5,0-44.8,19.5-44.8,45.9s12.5,44.3,44.7,44.3,29.6-6.5,38.7-18.3c3.9,3.9,15.7,15.6,19.7,19.5-14.7,15.9-34.6,24.8-58.4,24.8-48.8,0-74.3-28.9-74.3-70.3Z"/>
    <path id="b2xC5Wn6qZ1" data-name="b2xC5Wn6qZ" class="st1" d="M383.7,133.7c0-41.4,26.5-71.7,74.4-71.7s43.5,7.9,58,24.3c-2,2-18,18-20,20-8.9-12.2-21.4-18.5-38-18.5-31.5,0-44.8,19.5-44.8,45.9s12.5,44.3,44.7,44.3,29.6-6.5,38.7-18.3c3.9,3.9,15.7,15.6,19.7,19.5-14.7,15.9-34.6,24.8-58.4,24.8-48.8,0-74.3-28.9-74.3-70.3Z"/>
  </g>
  <g>
    <path id="a9gR9357k" class="st2" d="M383.7,133.7c0-41.4,26.5-71.7,74.4-71.7s43.5,7.9,58,24.3c-2,2-18,18-20,20-8.9-12.2-21.4-18.5-38-18.5-31.5,0-44.8,19.5-44.8,45.9s12.5,44.3,44.7,44.3,29.6-6.5,38.7-18.3c3.9,3.9,15.7,15.6,19.7,19.5-14.7,15.9-34.6,24.8-58.4,24.8-48.8,0-74.3-28.9-74.3-70.3Z"/>
    <path id="a9gR9357k1" data-name="a9gR9357k" class="st0" d="M383.7,133.7c0-41.4,26.5-71.7,74.4-71.7s43.5,7.9,58,24.3c-2,2-18,18-20,20-8.9-12.2-21.4-18.5-38-18.5-31.5,0-44.8,19.5-44.8,45.9s12.5,44.3,44.7,44.3,29.6-6.5,38.7-18.3c3.9,3.9,15.7,15.6,19.7,19.5-14.7,15.9-34.6,24.8-58.4,24.8-48.8,0-74.3-28.9-74.3-70.3Z"/>
  </g>
  <g>
    <path id="a9kdhztCDw" class="st3" d="M383.7,133.7c0-41.4,26.5-71.7,74.4-71.7s43.5,7.9,58,24.3c-2,2-18,18-20,20-8.9-12.2-21.4-18.5-38-18.5-31.5,0-44.8,19.5-44.8,45.9s12.5,44.3,44.7,44.3,29.6-6.5,38.7-18.3c3.9,3.9,15.7,15.6,19.7,19.5-14.7,15.9-34.6,24.8-58.4,24.8-48.8,0-74.3-28.9-74.3-70.3Z"/>
    <path id="a9kdhztCDw1" data-name="a9kdhztCDw" class="st1" d="M383.7,133.7c0-41.4,26.5-71.7,74.4-71.7s43.5,7.9,58,24.3c-2,2-18,18-20,20-8.9-12.2-21.4-18.5-38-18.5-31.5,0-44.8,19.5-44.8,45.9s12.5,44.3,44.7,44.3,29.6-6.5,38.7-18.3c3.9,3.9,15.7,15.6,19.7,19.5-14.7,15.9-34.6,24.8-58.4,24.8-48.8,0-74.3-28.9-74.3-70.3Z"/>
  </g>
  <g>
    <path id="bFq32UAgm" class="st2" d="M383.7,133.7c0-41.4,26.5-71.7,74.4-71.7s43.5,7.9,58,24.3c-2,2-18,18-20,20-8.9-12.2-21.4-18.5-38-18.5-31.5,0-44.8,19.5-44.8,45.9s12.5,44.3,44.7,44.3,29.6-6.5,38.7-18.3c3.9,3.9,15.7,15.6,19.7,19.5-14.7,15.9-34.6,24.8-58.4,24.8-48.8,0-74.3-28.9-74.3-70.3Z"/>
    <path id="bFq32UAgm1" data-name="bFq32UAgm" class="st0" d="M383.7,133.7c0-41.4,26.5-71.7,74.4-71.7s43.5,7.9,58,24.3c-2,2-18,18-20,20-8.9-12.2-21.4-18.5-38-18.5-31.5,0-44.8,19.5-44.8,45.9s12.5,44.3,44.7,44.3,29.6-6.5,38.7-18.3c3.9,3.9,15.7,15.6,19.7,19.5-14.7,15.9-34.6,24.8-58.4,24.8-48.8,0-74.3-28.9-74.3-70.3Z"/>
  </g>
  <g>
    <path id="cjDimmKY3" class="st3" d="M622.7,87.8c-29.4,0-41.8,19.2-41.8,45.9s12.3,44.1,41.8,44.1,41.8-18.3,41.8-44.1-12-45.9-41.8-45.9M622.7,203.8c-46.7,0-71.3-28.9-71.3-70.1s24.6-71.9,71.3-71.9,71.4,30.6,71.4,71.9-25.3,70.1-71.4,70.1"/>
    <path id="cjDimmKY31" data-name="cjDimmKY3" class="st1" d="M622.7,87.8c-29.4,0-41.8,19.2-41.8,45.9s12.3,44.1,41.8,44.1,41.8-18.3,41.8-44.1-12-45.9-41.8-45.9M622.7,203.8c-46.7,0-71.3-28.9-71.3-70.1s24.6-71.9,71.3-71.9,71.4,30.6,71.4,71.9-25.3,70.1-71.4,70.1"/>
  </g>
  <g>
    <path id="d1uMClkU4L" class="st2" d="M622.7,87.8c-29.4,0-41.8,19.2-41.8,45.9s12.3,44.1,41.8,44.1,41.8-18.3,41.8-44.1-12-45.9-41.8-45.9M622.7,203.8c-46.7,0-71.3-28.9-71.3-70.1s24.6-71.9,71.3-71.9,71.4,30.6,71.4,71.9-25.3,70.1-71.4,70.1"/>
    <path id="d1uMClkU4L1" data-name="d1uMClkU4L" class="st0" d="M622.7,87.8c-29.4,0-41.8,19.2-41.8,45.9s12.3,44.1,41.8,44.1,41.8-18.3,41.8-44.1-12-45.9-41.8-45.9M622.7,203.8c-46.7,0-71.3-28.9-71.3-70.1s24.6-71.9,71.3-71.9,71.4,30.6,71.4,71.9-25.3,70.1-71.4,70.1"/>
  </g>
  <g>
    <path id="b2s8b9nj2k" class="st3" d="M622.7,87.8c-29.4,0-41.8,19.2-41.8,45.9s12.3,44.1,41.8,44.1,41.8-18.3,41.8-44.1-12-45.9-41.8-45.9M622.7,203.8c-46.7,0-71.3-28.9-71.3-70.1s24.6-71.9,71.3-71.9,71.4,30.6,71.4,71.9-25.3,70.1-71.4,70.1"/>
    <path id="b2s8b9nj2k1" data-name="b2s8b9nj2k" class="st1" d="M622.7,87.8c-29.4,0-41.8,19.2-41.8,45.9s12.3,44.1,41.8,44.1,41.8-18.3,41.8-44.1-12-45.9-41.8-45.9M622.7,203.8c-46.7,0-71.3-28.9-71.3-70.1s24.6-71.9,71.3-71.9,71.4,30.6,71.4,71.9-25.3,70.1-71.4,70.1"/>
  </g>
  <g>
    <path id="bMCq19j9k" class="st2" d="M622.7,87.8c-29.4,0-41.8,19.2-41.8,45.9s12.3,44.1,41.8,44.1,41.8-18.3,41.8-44.1-12-45.9-41.8-45.9M622.7,203.8c-46.7,0-71.3-28.9-71.3-70.1s24.6-71.9,71.3-71.9,71.4,30.6,71.4,71.9-25.3,70.1-71.4,70.1"/>
    <path id="bMCq19j9k1" data-name="bMCq19j9k" class="st0" d="M622.7,87.8c-29.4,0-41.8,19.2-41.8,45.9s12.3,44.1,41.8,44.1,41.8-18.3,41.8-44.1-12-45.9-41.8-45.9M622.7,203.8c-46.7,0-71.3-28.9-71.3-70.1s24.6-71.9,71.3-71.9,71.4,30.6,71.4,71.9-25.3,70.1-71.4,70.1"/>
  </g>
  <g>
    <path id="aQEPXeIDj" class="st3" d="M739.4,63.5h29.1v110l-2.6,2.6h80.1v26h-106.6V63.5Z"/>
    <path id="aQEPXeIDj1" data-name="aQEPXeIDj" class="st1" d="M739.4,63.5h29.1v110l-2.6,2.6h80.1v26h-106.6V63.5Z"/>
  </g>
  <g>
    <path id="b1Q1hf4JbL" class="st2" d="M739.4,63.5h29.1v110l-2.6,2.6h80.1v26h-106.6V63.5Z"/>
    <path id="b1Q1hf4JbL1" data-name="b1Q1hf4JbL" class="st0" d="M739.4,63.5h29.1v110l-2.6,2.6h80.1v26h-106.6V63.5Z"/>
  </g>
  <g>
    <path id="b3lRMHNvzi" class="st3" d="M739.4,63.5h29.1v110l-2.6,2.6h80.1v26h-106.6V63.5Z"/>
    <path id="b3lRMHNvzi1" data-name="b3lRMHNvzi" class="st1" d="M739.4,63.5h29.1v110l-2.6,2.6h80.1v26h-106.6V63.5Z"/>
  </g>
  <g>
    <path id="a5UCr5KX73" class="st2" d="M739.4,63.5h29.1v110l-2.6,2.6h80.1v26h-106.6V63.5Z"/>
    <path id="a5UCr5KX731" data-name="a5UCr5KX73" class="st0" d="M739.4,63.5h29.1v110l-2.6,2.6h80.1v26h-106.6V63.5Z"/>
  </g>
  <g>
    <path id="c2jG6YbMvJ" class="st3" d="M884.5,63.5h114.6v26h-88.3l2.7,2.7v24.8l-2.7,2.7h80.1v26h-80.1l2.7,2.7v24.8l-2.7,2.7h88.3v26h-114.6V63.5Z"/>
    <path id="c2jG6YbMvJ1" data-name="c2jG6YbMvJ" class="st1" d="M884.5,63.5h114.6v26h-88.3l2.7,2.7v24.8l-2.7,2.7h80.1v26h-80.1l2.7,2.7v24.8l-2.7,2.7h88.3v26h-114.6V63.5Z"/>
  </g>
  <g>
    <path id="a6CBsCbo8" class="st2" d="M884.5,63.5h114.6v26h-88.3l2.7,2.7v24.8l-2.7,2.7h80.1v26h-80.1l2.7,2.7v24.8l-2.7,2.7h88.3v26h-114.6V63.5Z"/>
    <path id="a6CBsCbo81" data-name="a6CBsCbo8" class="st0" d="M884.5,63.5h114.6v26h-88.3l2.7,2.7v24.8l-2.7,2.7h80.1v26h-80.1l2.7,2.7v24.8l-2.7,2.7h88.3v26h-114.6V63.5Z"/>
  </g>
  <g>
    <path id="a3r396srv" class="st3" d="M884.5,63.5h114.6v26h-88.3l2.7,2.7v24.8l-2.7,2.7h80.1v26h-80.1l2.7,2.7v24.8l-2.7,2.7h88.3v26h-114.6V63.5Z"/>
    <path id="a3r396srv1" data-name="a3r396srv" class="st1" d="M884.5,63.5h114.6v26h-88.3l2.7,2.7v24.8l-2.7,2.7h80.1v26h-80.1l2.7,2.7v24.8l-2.7,2.7h88.3v26h-114.6V63.5Z"/>
  </g>
  <g>
    <path id="b5WvdUUGq" class="st2" d="M884.5,63.5h114.6v26h-88.3l2.7,2.7v24.8l-2.7,2.7h80.1v26h-80.1l2.7,2.7v24.8l-2.7,2.7h88.3v26h-114.6V63.5Z"/>
    <path id="b5WvdUUGq1" data-name="b5WvdUUGq" class="st0" d="M884.5,63.5h114.6v26h-88.3l2.7,2.7v24.8l-2.7,2.7h80.1v26h-80.1l2.7,2.7v24.8l-2.7,2.7h88.3v26h-114.6V63.5Z"/>
  </g>
  <g>
    <path id="a8pCE0xxB3" class="st3" d="M394.9,267.7c0-14.9,9.6-25.8,26.8-25.8s15.7,2.8,20.9,8.8l-7.2,7.2c-3.2-4.4-7.7-6.7-13.7-6.7-11.3,0-16.2,7-16.2,16.5s4.5,16,16.1,16,10.7-2.3,13.9-6.6c1.4,1.4,5.7,5.6,7.1,7-5.3,5.7-12.5,8.9-21,8.9-17.6,0-26.8-10.4-26.8-25.4Z"/>
    <path id="a8pCE0xxB31" data-name="a8pCE0xxB3" class="st1" d="M394.9,267.7c0-14.9,9.6-25.8,26.8-25.8s15.7,2.8,20.9,8.8l-7.2,7.2c-3.2-4.4-7.7-6.7-13.7-6.7-11.3,0-16.2,7-16.2,16.5s4.5,16,16.1,16,10.7-2.3,13.9-6.6c1.4,1.4,5.7,5.6,7.1,7-5.3,5.7-12.5,8.9-21,8.9-17.6,0-26.8-10.4-26.8-25.4Z"/>
  </g>
  <g>
    <path id="btkI447q1" class="st2" d="M394.9,267.7c0-14.9,9.6-25.8,26.8-25.8s15.7,2.8,20.9,8.8l-7.2,7.2c-3.2-4.4-7.7-6.7-13.7-6.7-11.3,0-16.2,7-16.2,16.5s4.5,16,16.1,16,10.7-2.3,13.9-6.6c1.4,1.4,5.7,5.6,7.1,7-5.3,5.7-12.5,8.9-21,8.9-17.6,0-26.8-10.4-26.8-25.4Z"/>
    <path id="btkI447q11" data-name="btkI447q1" class="st0" d="M394.9,267.7c0-14.9,9.6-25.8,26.8-25.8s15.7,2.8,20.9,8.8l-7.2,7.2c-3.2-4.4-7.7-6.7-13.7-6.7-11.3,0-16.2,7-16.2,16.5s4.5,16,16.1,16,10.7-2.3,13.9-6.6c1.4,1.4,5.7,5.6,7.1,7-5.3,5.7-12.5,8.9-21,8.9-17.6,0-26.8-10.4-26.8-25.4Z"/>
  </g>
  <g>
    <path id="b1qY6VNvQL" class="st3" d="M394.9,267.7c0-14.9,9.6-25.8,26.8-25.8s15.7,2.8,20.9,8.8l-7.2,7.2c-3.2-4.4-7.7-6.7-13.7-6.7-11.3,0-16.2,7-16.2,16.5s4.5,16,16.1,16,10.7-2.3,13.9-6.6c1.4,1.4,5.7,5.6,7.1,7-5.3,5.7-12.5,8.9-21,8.9-17.6,0-26.8-10.4-26.8-25.4Z"/>
    <path id="b1qY6VNvQL1" data-name="b1qY6VNvQL" class="st1" d="M394.9,267.7c0-14.9,9.6-25.8,26.8-25.8s15.7,2.8,20.9,8.8l-7.2,7.2c-3.2-4.4-7.7-6.7-13.7-6.7-11.3,0-16.2,7-16.2,16.5s4.5,16,16.1,16,10.7-2.3,13.9-6.6c1.4,1.4,5.7,5.6,7.1,7-5.3,5.7-12.5,8.9-21,8.9-17.6,0-26.8-10.4-26.8-25.4Z"/>
  </g>
  <g>
    <path id="a2jjzoyWAr" class="st2" d="M394.9,267.7c0-14.9,9.6-25.8,26.8-25.8s15.7,2.8,20.9,8.8l-7.2,7.2c-3.2-4.4-7.7-6.7-13.7-6.7-11.3,0-16.2,7-16.2,16.5s4.5,16,16.1,16,10.7-2.3,13.9-6.6c1.4,1.4,5.7,5.6,7.1,7-5.3,5.7-12.5,8.9-21,8.9-17.6,0-26.8-10.4-26.8-25.4Z"/>
    <path id="a2jjzoyWAr1" data-name="a2jjzoyWAr" class="st0" d="M394.9,267.7c0-14.9,9.6-25.8,26.8-25.8s15.7,2.8,20.9,8.8l-7.2,7.2c-3.2-4.4-7.7-6.7-13.7-6.7-11.3,0-16.2,7-16.2,16.5s4.5,16,16.1,16,10.7-2.3,13.9-6.6c1.4,1.4,5.7,5.6,7.1,7-5.3,5.7-12.5,8.9-21,8.9-17.6,0-26.8-10.4-26.8-25.4Z"/>
  </g>
  <g>
    <path id="d4HuSn3QSe" class="st3" d="M493.7,251.7h-15.6l1,.9v11.8c-.6.6-.9.9-1,1h15.6c5.9,0,8.1-2.9,8.1-6.9s-2.3-6.9-8.1-6.9M493.7,274.9h-15.6l1,.9v16.5h-10.5v-50h25.1c11.8,0,18.8,6.7,18.8,16.2s-7,16.3-18.8,16.3"/>
    <path id="d4HuSn3QSe1" data-name="d4HuSn3QSe" class="st1" d="M493.7,251.7h-15.6l1,.9v11.8c-.6.6-.9.9-1,1h15.6c5.9,0,8.1-2.9,8.1-6.9s-2.3-6.9-8.1-6.9M493.7,274.9h-15.6l1,.9v16.5h-10.5v-50h25.1c11.8,0,18.8,6.7,18.8,16.2s-7,16.3-18.8,16.3"/>
  </g>
  <g>
    <path id="c1yl5N6jEW" class="st2" d="M493.7,251.7h-15.6l1,.9v11.8c-.6.6-.9.9-1,1h15.6c5.9,0,8.1-2.9,8.1-6.9s-2.3-6.9-8.1-6.9M493.7,274.9h-15.6l1,.9v16.5h-10.5v-50h25.1c11.8,0,18.8,6.7,18.8,16.2s-7,16.3-18.8,16.3"/>
    <path id="c1yl5N6jEW1" data-name="c1yl5N6jEW" class="st0" d="M493.7,251.7h-15.6l1,.9v11.8c-.6.6-.9.9-1,1h15.6c5.9,0,8.1-2.9,8.1-6.9s-2.3-6.9-8.1-6.9M493.7,274.9h-15.6l1,.9v16.5h-10.5v-50h25.1c11.8,0,18.8,6.7,18.8,16.2s-7,16.3-18.8,16.3"/>
  </g>
  <g>
    <path id="c3kObkYkV" class="st3" d="M493.7,251.7h-15.6l1,.9v11.8c-.6.6-.9.9-1,1h15.6c5.9,0,8.1-2.9,8.1-6.9s-2.3-6.9-8.1-6.9M493.7,274.9h-15.6l1,.9v16.5h-10.5v-50h25.1c11.8,0,18.8,6.7,18.8,16.2s-7,16.3-18.8,16.3"/>
    <path id="c3kObkYkV1" data-name="c3kObkYkV" class="st1" d="M493.7,251.7h-15.6l1,.9v11.8c-.6.6-.9.9-1,1h15.6c5.9,0,8.1-2.9,8.1-6.9s-2.3-6.9-8.1-6.9M493.7,274.9h-15.6l1,.9v16.5h-10.5v-50h25.1c11.8,0,18.8,6.7,18.8,16.2s-7,16.3-18.8,16.3"/>
  </g>
  <g>
    <path id="cpILVNi61" class="st2" d="M493.7,251.7h-15.6l1,.9v11.8c-.6.6-.9.9-1,1h15.6c5.9,0,8.1-2.9,8.1-6.9s-2.3-6.9-8.1-6.9M493.7,274.9h-15.6l1,.9v16.5h-10.5v-50h25.1c11.8,0,18.8,6.7,18.8,16.2s-7,16.3-18.8,16.3"/>
    <path id="cpILVNi611" data-name="cpILVNi61" class="st0" d="M493.7,251.7h-15.6l1,.9v11.8c-.6.6-.9.9-1,1h15.6c5.9,0,8.1-2.9,8.1-6.9s-2.3-6.9-8.1-6.9M493.7,274.9h-15.6l1,.9v16.5h-10.5v-50h25.1c11.8,0,18.8,6.7,18.8,16.2s-7,16.3-18.8,16.3"/>
  </g>
  <g>
    <path id="a2lZ1eRZe2" class="st3" d="M561.3,259.8l-1.5-4.6h-.1c0,0-1.5,4.6-1.5,4.6l-5.2,10.9-1.1,1h15.7l-1-1-5.2-10.9ZM571.7,281.4l.6-.9h-25.1l.6.9-5.2,11h-11.5l24.1-50h9.2l24,50h-11.5l-5.2-11Z"/>
    <path id="a2lZ1eRZe21" data-name="a2lZ1eRZe2" class="st1" d="M561.3,259.8l-1.5-4.6h-.1c0,0-1.5,4.6-1.5,4.6l-5.2,10.9-1.1,1h15.7l-1-1-5.2-10.9ZM571.7,281.4l.6-.9h-25.1l.6.9-5.2,11h-11.5l24.1-50h9.2l24,50h-11.5l-5.2-11Z"/>
  </g>
  <g>
    <path id="b2ja05BGm" class="st2" d="M561.3,259.8l-1.5-4.6h-.1c0,0-1.5,4.6-1.5,4.6l-5.2,10.9-1.1,1h15.7l-1-1-5.2-10.9ZM571.7,281.4l.6-.9h-25.1l.6.9-5.2,11h-11.5l24.1-50h9.2l24,50h-11.5l-5.2-11Z"/>
    <path id="b2ja05BGm1" data-name="b2ja05BGm" class="st0" d="M561.3,259.8l-1.5-4.6h-.1c0,0-1.5,4.6-1.5,4.6l-5.2,10.9-1.1,1h15.7l-1-1-5.2-10.9ZM571.7,281.4l.6-.9h-25.1l.6.9-5.2,11h-11.5l24.1-50h9.2l24,50h-11.5l-5.2-11Z"/>
  </g>
  <g>
    <path id="bcKsqRrbe" class="st3" d="M561.3,259.8l-1.5-4.6h-.1c0,0-1.5,4.6-1.5,4.6l-5.2,10.9-1.1,1h15.7l-1-1-5.2-10.9ZM571.7,281.4l.6-.9h-25.1l.6.9-5.2,11h-11.5l24.1-50h9.2l24,50h-11.5l-5.2-11Z"/>
    <path id="bcKsqRrbe1" data-name="bcKsqRrbe" class="st1" d="M561.3,259.8l-1.5-4.6h-.1c0,0-1.5,4.6-1.5,4.6l-5.2,10.9-1.1,1h15.7l-1-1-5.2-10.9ZM571.7,281.4l.6-.9h-25.1l.6.9-5.2,11h-11.5l24.1-50h9.2l24,50h-11.5l-5.2-11Z"/>
  </g>
  <g>
    <path id="ecgwi4wTc" class="st2" d="M561.3,259.8l-1.5-4.6h-.1c0,0-1.5,4.6-1.5,4.6l-5.2,10.9-1.1,1h15.7l-1-1-5.2-10.9ZM571.7,281.4l.6-.9h-25.1l.6.9-5.2,11h-11.5l24.1-50h9.2l24,50h-11.5l-5.2-11Z"/>
    <path id="ecgwi4wTc1" data-name="ecgwi4wTc" class="st0" d="M561.3,259.8l-1.5-4.6h-.1c0,0-1.5,4.6-1.5,4.6l-5.2,10.9-1.1,1h15.7l-1-1-5.2-10.9ZM571.7,281.4l.6-.9h-25.1l.6.9-5.2,11h-11.5l24.1-50h9.2l24,50h-11.5l-5.2-11Z"/>
  </g>
  <g>
    <path id="a28Wqz4e2t" class="st3" d="M690,287.7c-3,3.1-8.8,5.3-14.6,5.3-16.9,0-26.7-9.9-26.7-25.2s10-26,27-26,15.6,2.4,20.7,7.7c-.7.7-6.5,6.6-7.2,7.3-3.5-4.1-8.1-5.7-13.5-5.7-11.2,0-16.3,6.1-16.3,16.7s4.9,15.9,16,15.9,13.1-4.5,13.8-10.7c0,0,.4-.4,1-1h-17.3v-9.3h26.2v29.8h-9.1v-4.8Z"/>
    <path id="a28Wqz4e2t1" data-name="a28Wqz4e2t" class="st1" d="M690,287.7c-3,3.1-8.8,5.3-14.6,5.3-16.9,0-26.7-9.9-26.7-25.2s10-26,27-26,15.6,2.4,20.7,7.7c-.7.7-6.5,6.6-7.2,7.3-3.5-4.1-8.1-5.7-13.5-5.7-11.2,0-16.3,6.1-16.3,16.7s4.9,15.9,16,15.9,13.1-4.5,13.8-10.7c0,0,.4-.4,1-1h-17.3v-9.3h26.2v29.8h-9.1v-4.8Z"/>
  </g>
  <g>
    <path id="a3cgXfsPEB" class="st2" d="M690,287.7c-3,3.1-8.8,5.3-14.6,5.3-16.9,0-26.7-9.9-26.7-25.2s10-26,27-26,15.6,2.4,20.7,7.7c-.7.7-6.5,6.6-7.2,7.3-3.5-4.1-8.1-5.7-13.5-5.7-11.2,0-16.3,6.1-16.3,16.7s4.9,15.9,16,15.9,13.1-4.5,13.8-10.7c0,0,.4-.4,1-1h-17.3v-9.3h26.2v29.8h-9.1v-4.8Z"/>
    <path id="a3cgXfsPEB1" data-name="a3cgXfsPEB" class="st0" d="M690,287.7c-3,3.1-8.8,5.3-14.6,5.3-16.9,0-26.7-9.9-26.7-25.2s10-26,27-26,15.6,2.4,20.7,7.7c-.7.7-6.5,6.6-7.2,7.3-3.5-4.1-8.1-5.7-13.5-5.7-11.2,0-16.3,6.1-16.3,16.7s4.9,15.9,16,15.9,13.1-4.5,13.8-10.7c0,0,.4-.4,1-1h-17.3v-9.3h26.2v29.8h-9.1v-4.8Z"/>
  </g>
  <g>
    <path id="a4Xh23TUo" class="st3" d="M690,287.7c-3,3.1-8.8,5.3-14.6,5.3-16.9,0-26.7-9.9-26.7-25.2s10-26,27-26,15.6,2.4,20.7,7.7c-.7.7-6.5,6.6-7.2,7.3-3.5-4.1-8.1-5.7-13.5-5.7-11.2,0-16.3,6.1-16.3,16.7s4.9,15.9,16,15.9,13.1-4.5,13.8-10.7c0,0,.4-.4,1-1h-17.3v-9.3h26.2v29.8h-9.1v-4.8Z"/>
    <path id="a4Xh23TUo1" data-name="a4Xh23TUo" class="st1" d="M690,287.7c-3,3.1-8.8,5.3-14.6,5.3-16.9,0-26.7-9.9-26.7-25.2s10-26,27-26,15.6,2.4,20.7,7.7c-.7.7-6.5,6.6-7.2,7.3-3.5-4.1-8.1-5.7-13.5-5.7-11.2,0-16.3,6.1-16.3,16.7s4.9,15.9,16,15.9,13.1-4.5,13.8-10.7c0,0,.4-.4,1-1h-17.3v-9.3h26.2v29.8h-9.1v-4.8Z"/>
  </g>
  <g>
    <path id="f2hFoP5AV6" class="st2" d="M690,287.7c-3,3.1-8.8,5.3-14.6,5.3-16.9,0-26.7-9.9-26.7-25.2s10-26,27-26,15.6,2.4,20.7,7.7c-.7.7-6.5,6.6-7.2,7.3-3.5-4.1-8.1-5.7-13.5-5.7-11.2,0-16.3,6.1-16.3,16.7s4.9,15.9,16,15.9,13.1-4.5,13.8-10.7c0,0,.4-.4,1-1h-17.3v-9.3h26.2v29.8h-9.1v-4.8Z"/>
    <path id="f2hFoP5AV61" data-name="f2hFoP5AV6" class="st0" d="M690,287.7c-3,3.1-8.8,5.3-14.6,5.3-16.9,0-26.7-9.9-26.7-25.2s10-26,27-26,15.6,2.4,20.7,7.7c-.7.7-6.5,6.6-7.2,7.3-3.5-4.1-8.1-5.7-13.5-5.7-11.2,0-16.3,6.1-16.3,16.7s4.9,15.9,16,15.9,13.1-4.5,13.8-10.7c0,0,.4-.4,1-1h-17.3v-9.3h26.2v29.8h-9.1v-4.8Z"/>
  </g>
  <g>
    <path id="dscsmhb4H" class="st3" d="M752.9,251.7h-14.7l1,.9v10.9c-.6.6-.9.9-1,1h14.1c6.4,0,9.1-3.1,9.1-6.4s-3-6.5-8.4-6.5M758.8,279.1c-2-3.9-4.9-5.6-10.7-5.6h-9.9c0,0,.4.4,1,.9v17.9h-10.5v-50h24.2c9.9,0,19.1,4.9,19.1,15.6s-4.1,10.1-8.5,12.1h0c1.7.9,3.7,2.7,5.1,5.3,1.2,2.2,4.1,7.9,8.9,16.9h-11.8c-4.1-7.9-6.4-12.3-6.8-13.2Z"/>
    <path id="dscsmhb4H1" data-name="dscsmhb4H" class="st1" d="M752.9,251.7h-14.7l1,.9v10.9c-.6.6-.9.9-1,1h14.1c6.4,0,9.1-3.1,9.1-6.4s-3-6.5-8.4-6.5M758.8,279.1c-2-3.9-4.9-5.6-10.7-5.6h-9.9c0,0,.4.4,1,.9v17.9h-10.5v-50h24.2c9.9,0,19.1,4.9,19.1,15.6s-4.1,10.1-8.5,12.1h0c1.7.9,3.7,2.7,5.1,5.3,1.2,2.2,4.1,7.9,8.9,16.9h-11.8c-4.1-7.9-6.4-12.3-6.8-13.2Z"/>
  </g>
  <g>
    <path id="a3yS4TdsE" class="st2" d="M752.9,251.7h-14.7l1,.9v10.9c-.6.6-.9.9-1,1h14.1c6.4,0,9.1-3.1,9.1-6.4s-3-6.5-8.4-6.5M758.8,279.1c-2-3.9-4.9-5.6-10.7-5.6h-9.9c0,0,.4.4,1,.9v17.9h-10.5v-50h24.2c9.9,0,19.1,4.9,19.1,15.6s-4.1,10.1-8.5,12.1h0c1.7.9,3.7,2.7,5.1,5.3,1.2,2.2,4.1,7.9,8.9,16.9h-11.8c-4.1-7.9-6.4-12.3-6.8-13.2Z"/>
    <path id="a3yS4TdsE1" data-name="a3yS4TdsE" class="st0" d="M752.9,251.7h-14.7l1,.9v10.9c-.6.6-.9.9-1,1h14.1c6.4,0,9.1-3.1,9.1-6.4s-3-6.5-8.4-6.5M758.8,279.1c-2-3.9-4.9-5.6-10.7-5.6h-9.9c0,0,.4.4,1,.9v17.9h-10.5v-50h24.2c9.9,0,19.1,4.9,19.1,15.6s-4.1,10.1-8.5,12.1h0c1.7.9,3.7,2.7,5.1,5.3,1.2,2.2,4.1,7.9,8.9,16.9h-11.8c-4.1-7.9-6.4-12.3-6.8-13.2Z"/>
  </g>
  <g>
    <path id="gvnAVZhnZ" class="st3" d="M752.9,251.7h-14.7l1,.9v10.9c-.6.6-.9.9-1,1h14.1c6.4,0,9.1-3.1,9.1-6.4s-3-6.5-8.4-6.5M758.8,279.1c-2-3.9-4.9-5.6-10.7-5.6h-9.9c0,0,.4.4,1,.9v17.9h-10.5v-50h24.2c9.9,0,19.1,4.9,19.1,15.6s-4.1,10.1-8.5,12.1h0c1.7.9,3.7,2.7,5.1,5.3,1.2,2.2,4.1,7.9,8.9,16.9h-11.8c-4.1-7.9-6.4-12.3-6.8-13.2Z"/>
    <path id="gvnAVZhnZ1" data-name="gvnAVZhnZ" class="st1" d="M752.9,251.7h-14.7l1,.9v10.9c-.6.6-.9.9-1,1h14.1c6.4,0,9.1-3.1,9.1-6.4s-3-6.5-8.4-6.5M758.8,279.1c-2-3.9-4.9-5.6-10.7-5.6h-9.9c0,0,.4.4,1,.9v17.9h-10.5v-50h24.2c9.9,0,19.1,4.9,19.1,15.6s-4.1,10.1-8.5,12.1h0c1.7.9,3.7,2.7,5.1,5.3,1.2,2.2,4.1,7.9,8.9,16.9h-11.8c-4.1-7.9-6.4-12.3-6.8-13.2Z"/>
  </g>
  <g>
    <path id="b2NsDW2Vg" class="st2" d="M752.9,251.7h-14.7l1,.9v10.9c-.6.6-.9.9-1,1h14.1c6.4,0,9.1-3.1,9.1-6.4s-3-6.5-8.4-6.5M758.8,279.1c-2-3.9-4.9-5.6-10.7-5.6h-9.9c0,0,.4.4,1,.9v17.9h-10.5v-50h24.2c9.9,0,19.1,4.9,19.1,15.6s-4.1,10.1-8.5,12.1h0c1.7.9,3.7,2.7,5.1,5.3,1.2,2.2,4.1,7.9,8.9,16.9h-11.8c-4.1-7.9-6.4-12.3-6.8-13.2Z"/>
    <path id="b2NsDW2Vg1" data-name="b2NsDW2Vg" class="st0" d="M752.9,251.7h-14.7l1,.9v10.9c-.6.6-.9.9-1,1h14.1c6.4,0,9.1-3.1,9.1-6.4s-3-6.5-8.4-6.5M758.8,279.1c-2-3.9-4.9-5.6-10.7-5.6h-9.9c0,0,.4.4,1,.9v17.9h-10.5v-50h24.2c9.9,0,19.1,4.9,19.1,15.6s-4.1,10.1-8.5,12.1h0c1.7.9,3.7,2.7,5.1,5.3,1.2,2.2,4.1,7.9,8.9,16.9h-11.8c-4.1-7.9-6.4-12.3-6.8-13.2Z"/>
  </g>
  <g>
    <path id="h2EKF6JoC" class="st3" d="M825.4,251.1c-10.6,0-15.1,6.9-15.1,16.5s4.4,15.9,15.1,15.9,15-6.6,15-15.9-4.3-16.5-15-16.5M825.4,293c-16.9,0-25.7-10.4-25.7-25.3s8.9-25.9,25.7-25.9,25.7,11,25.7,25.9-9.1,25.3-25.7,25.3"/>
    <path id="h2EKF6JoC1" data-name="h2EKF6JoC" class="st1" d="M825.4,251.1c-10.6,0-15.1,6.9-15.1,16.5s4.4,15.9,15.1,15.9,15-6.6,15-15.9-4.3-16.5-15-16.5M825.4,293c-16.9,0-25.7-10.4-25.7-25.3s8.9-25.9,25.7-25.9,25.7,11,25.7,25.9-9.1,25.3-25.7,25.3"/>
  </g>
  <g>
    <path id="acuKmyYPd" class="st2" d="M825.4,251.1c-10.6,0-15.1,6.9-15.1,16.5s4.4,15.9,15.1,15.9,15-6.6,15-15.9-4.3-16.5-15-16.5M825.4,293c-16.9,0-25.7-10.4-25.7-25.3s8.9-25.9,25.7-25.9,25.7,11,25.7,25.9-9.1,25.3-25.7,25.3"/>
    <path id="acuKmyYPd1" data-name="acuKmyYPd" class="st0" d="M825.4,251.1c-10.6,0-15.1,6.9-15.1,16.5s4.4,15.9,15.1,15.9,15-6.6,15-15.9-4.3-16.5-15-16.5M825.4,293c-16.9,0-25.7-10.4-25.7-25.3s8.9-25.9,25.7-25.9,25.7,11,25.7,25.9-9.1,25.3-25.7,25.3"/>
  </g>
  <g>
    <path id="ac9z64T22" class="st3" d="M825.4,251.1c-10.6,0-15.1,6.9-15.1,16.5s4.4,15.9,15.1,15.9,15-6.6,15-15.9-4.3-16.5-15-16.5M825.4,293c-16.9,0-25.7-10.4-25.7-25.3s8.9-25.9,25.7-25.9,25.7,11,25.7,25.9-9.1,25.3-25.7,25.3"/>
    <path id="ac9z64T221" data-name="ac9z64T22" class="st1" d="M825.4,251.1c-10.6,0-15.1,6.9-15.1,16.5s4.4,15.9,15.1,15.9,15-6.6,15-15.9-4.3-16.5-15-16.5M825.4,293c-16.9,0-25.7-10.4-25.7-25.3s8.9-25.9,25.7-25.9,25.7,11,25.7,25.9-9.1,25.3-25.7,25.3"/>
  </g>
  <g>
    <path id="a4BkOxl7PE" class="st2" d="M825.4,251.1c-10.6,0-15.1,6.9-15.1,16.5s4.4,15.9,15.1,15.9,15-6.6,15-15.9-4.3-16.5-15-16.5M825.4,293c-16.9,0-25.7-10.4-25.7-25.3s8.9-25.9,25.7-25.9,25.7,11,25.7,25.9-9.1,25.3-25.7,25.3"/>
    <path id="a4BkOxl7PE1" data-name="a4BkOxl7PE" class="st0" d="M825.4,251.1c-10.6,0-15.1,6.9-15.1,16.5s4.4,15.9,15.1,15.9,15-6.6,15-15.9-4.3-16.5-15-16.5M825.4,293c-16.9,0-25.7-10.4-25.7-25.3s8.9-25.9,25.7-25.9,25.7,11,25.7,25.9-9.1,25.3-25.7,25.3"/>
  </g>
  <g>
    <path id="aXYkRppUI" class="st3" d="M878.2,269.3v-27h10.5v26.9c0,9.4,3.5,14.3,13,14.3s13-4.9,13-14.3v-26.9h10.5v27c0,14.9-7.5,23.6-23.5,23.6s-23.6-8.6-23.6-23.6Z"/>
    <path id="aXYkRppUI1" data-name="aXYkRppUI" class="st1" d="M878.2,269.3v-27h10.5v26.9c0,9.4,3.5,14.3,13,14.3s13-4.9,13-14.3v-26.9h10.5v27c0,14.9-7.5,23.6-23.5,23.6s-23.6-8.6-23.6-23.6Z"/>
  </g>
  <g>
    <path id="gaf6WgmTd" class="st2" d="M878.2,269.3v-27h10.5v26.9c0,9.4,3.5,14.3,13,14.3s13-4.9,13-14.3v-26.9h10.5v27c0,14.9-7.5,23.6-23.5,23.6s-23.6-8.6-23.6-23.6Z"/>
    <path id="gaf6WgmTd1" data-name="gaf6WgmTd" class="st0" d="M878.2,269.3v-27h10.5v26.9c0,9.4,3.5,14.3,13,14.3s13-4.9,13-14.3v-26.9h10.5v27c0,14.9-7.5,23.6-23.5,23.6s-23.6-8.6-23.6-23.6Z"/>
  </g>
  <g>
    <path id="ealACEYKu" class="st3" d="M878.2,269.3v-27h10.5v26.9c0,9.4,3.5,14.3,13,14.3s13-4.9,13-14.3v-26.9h10.5v27c0,14.9-7.5,23.6-23.5,23.6s-23.6-8.6-23.6-23.6Z"/>
    <path id="ealACEYKu1" data-name="ealACEYKu" class="st1" d="M878.2,269.3v-27h10.5v26.9c0,9.4,3.5,14.3,13,14.3s13-4.9,13-14.3v-26.9h10.5v27c0,14.9-7.5,23.6-23.5,23.6s-23.6-8.6-23.6-23.6Z"/>
  </g>
  <g>
    <path id="e4jzXM6Qj" class="st2" d="M878.2,269.3v-27h10.5v26.9c0,9.4,3.5,14.3,13,14.3s13-4.9,13-14.3v-26.9h10.5v27c0,14.9-7.5,23.6-23.5,23.6s-23.6-8.6-23.6-23.6Z"/>
    <path id="e4jzXM6Qj1" data-name="e4jzXM6Qj" class="st0" d="M878.2,269.3v-27h10.5v26.9c0,9.4,3.5,14.3,13,14.3s13-4.9,13-14.3v-26.9h10.5v27c0,14.9-7.5,23.6-23.5,23.6s-23.6-8.6-23.6-23.6Z"/>
  </g>
  <g>
    <path id="azXgKdZC2" class="st3" d="M979.7,251.7h-15.6l1,.9v11.8c-.6.6-.9.9-1,1h15.6c5.9,0,8.2-2.9,8.2-6.9s-2.3-6.9-8.2-6.9M979.7,274.9h-15.6l1,.9v16.5h-10.5v-50h25.1c11.9,0,18.8,6.7,18.8,16.2s-7,16.3-18.8,16.3"/>
    <path id="azXgKdZC21" data-name="azXgKdZC2" class="st1" d="M979.7,251.7h-15.6l1,.9v11.8c-.6.6-.9.9-1,1h15.6c5.9,0,8.2-2.9,8.2-6.9s-2.3-6.9-8.2-6.9M979.7,274.9h-15.6l1,.9v16.5h-10.5v-50h25.1c11.9,0,18.8,6.7,18.8,16.2s-7,16.3-18.8,16.3"/>
  </g>
  <g>
    <path id="e3launF8dL" class="st2" d="M979.7,251.7h-15.6l1,.9v11.8c-.6.6-.9.9-1,1h15.6c5.9,0,8.2-2.9,8.2-6.9s-2.3-6.9-8.2-6.9M979.7,274.9h-15.6l1,.9v16.5h-10.5v-50h25.1c11.9,0,18.8,6.7,18.8,16.2s-7,16.3-18.8,16.3"/>
    <path id="e3launF8dL1" data-name="e3launF8dL" class="st0" d="M979.7,251.7h-15.6l1,.9v11.8c-.6.6-.9.9-1,1h15.6c5.9,0,8.2-2.9,8.2-6.9s-2.3-6.9-8.2-6.9M979.7,274.9h-15.6l1,.9v16.5h-10.5v-50h25.1c11.9,0,18.8,6.7,18.8,16.2s-7,16.3-18.8,16.3"/>
  </g>
  <g>
    <path id="b33cfnFxGZ" class="st3" d="M979.7,251.7h-15.6l1,.9v11.8c-.6.6-.9.9-1,1h15.6c5.9,0,8.2-2.9,8.2-6.9s-2.3-6.9-8.2-6.9M979.7,274.9h-15.6l1,.9v16.5h-10.5v-50h25.1c11.9,0,18.8,6.7,18.8,16.2s-7,16.3-18.8,16.3"/>
    <path id="b33cfnFxGZ1" data-name="b33cfnFxGZ" class="st1" d="M979.7,251.7h-15.6l1,.9v11.8c-.6.6-.9.9-1,1h15.6c5.9,0,8.2-2.9,8.2-6.9s-2.3-6.9-8.2-6.9M979.7,274.9h-15.6l1,.9v16.5h-10.5v-50h25.1c11.9,0,18.8,6.7,18.8,16.2s-7,16.3-18.8,16.3"/>
  </g>
  <g>
    <path id="bdtgb1PJZ" class="st2" d="M979.7,251.7h-15.6l1,.9v11.8c-.6.6-.9.9-1,1h15.6c5.9,0,8.2-2.9,8.2-6.9s-2.3-6.9-8.2-6.9M979.7,274.9h-15.6l1,.9v16.5h-10.5v-50h25.1c11.9,0,18.8,6.7,18.8,16.2s-7,16.3-18.8,16.3"/>
    <path id="bdtgb1PJZ1" data-name="bdtgb1PJZ" class="st0" d="M979.7,251.7h-15.6l1,.9v11.8c-.6.6-.9.9-1,1h15.6c5.9,0,8.2-2.9,8.2-6.9s-2.3-6.9-8.2-6.9M979.7,274.9h-15.6l1,.9v16.5h-10.5v-50h25.1c11.9,0,18.8,6.7,18.8,16.2s-7,16.3-18.8,16.3"/>
  </g>
  <g>
    <path id="a1Mdd14qG4" class="st5" d="M162.6,61.2c8.2,14.7,16.8,29.1,25.2,43.7,13.7,23.5,26.2,47.7,41.8,70.1,15.6-28,32-55.5,47.8-83.2-14-23.3-26.3-47.5-41-70.4-4.7-8-13.3-13.6-22.7-13.4-14.2-.8-56.8-1.4-81.5-.6,3,5.4,27.4,48.5,30.4,53.9,0,0,0,0,0,0"/>
    <path id="a1Mdd14qG41" data-name="a1Mdd14qG4" class="st1" d="M162.6,61.2c8.2,14.7,16.8,29.1,25.2,43.7,13.7,23.5,26.2,47.7,41.8,70.1,15.6-28,32-55.5,47.8-83.2-14-23.3-26.3-47.5-41-70.4-4.7-8-13.3-13.6-22.7-13.4-14.2-.8-56.8-1.4-81.5-.6,3,5.4,27.4,48.5,30.4,53.9,0,0,0,0,0,0"/>
  </g>
  <g>
    <path id="c2I3hDDBNM" class="st2" d="M162.6,61.2c8.2,14.7,16.8,29.1,25.2,43.7,13.7,23.5,26.2,47.7,41.8,70.1,15.6-28,32-55.5,47.8-83.2-14-23.3-26.3-47.5-41-70.4-4.7-8-13.3-13.6-22.7-13.4-14.2-.8-56.8-1.4-81.5-.6,3,5.4,27.4,48.5,30.4,53.9,0,0,0,0,0,0"/>
    <path id="c2I3hDDBNM1" data-name="c2I3hDDBNM" class="st1" d="M162.6,61.2c8.2,14.7,16.8,29.1,25.2,43.7,13.7,23.5,26.2,47.7,41.8,70.1,15.6-28,32-55.5,47.8-83.2-14-23.3-26.3-47.5-41-70.4-4.7-8-13.3-13.6-22.7-13.4-14.2-.8-56.8-1.4-81.5-.6,3,5.4,27.4,48.5,30.4,53.9,0,0,0,0,0,0"/>
  </g>
  <g>
    <path id="b12nGeNIjd" class="st2" d="M162.6,61.2c8.2,14.7,16.8,29.1,25.2,43.7,13.7,23.5,26.2,47.7,41.8,70.1,15.6-28,32-55.5,47.8-83.2-14-23.3-26.3-47.5-41-70.4-4.7-8-13.3-13.6-22.7-13.4-14.2-.8-56.8-1.4-81.5-.6,3,5.4,27.4,48.5,30.4,53.9,0,0,0,0,0,0"/>
    <path id="b12nGeNIjd1" data-name="b12nGeNIjd" class="st1" d="M162.6,61.2c8.2,14.7,16.8,29.1,25.2,43.7,13.7,23.5,26.2,47.7,41.8,70.1,15.6-28,32-55.5,47.8-83.2-14-23.3-26.3-47.5-41-70.4-4.7-8-13.3-13.6-22.7-13.4-14.2-.8-56.8-1.4-81.5-.6,3,5.4,27.4,48.5,30.4,53.9,0,0,0,0,0,0"/>
  </g>
  <g>
    <path id="c21DR8sc0P" class="st2" d="M162.6,61.2c8.2,14.7,16.8,29.1,25.2,43.7,13.7,23.5,26.2,47.7,41.8,70.1,15.6-28,32-55.5,47.8-83.2-14-23.3-26.3-47.5-41-70.4-4.7-8-13.3-13.6-22.7-13.4-14.2-.8-56.8-1.4-81.5-.6,3,5.4,27.4,48.5,30.4,53.9,0,0,0,0,0,0"/>
    <path id="c21DR8sc0P1" data-name="c21DR8sc0P" class="st1" d="M162.6,61.2c8.2,14.7,16.8,29.1,25.2,43.7,13.7,23.5,26.2,47.7,41.8,70.1,15.6-28,32-55.5,47.8-83.2-14-23.3-26.3-47.5-41-70.4-4.7-8-13.3-13.6-22.7-13.4-14.2-.8-56.8-1.4-81.5-.6,3,5.4,27.4,48.5,30.4,53.9,0,0,0,0,0,0"/>
  </g>
  <g>
    <path id="b108slQyME" class="st6" d="M162.6,293.6c8.2-14.7,16.8-29.1,25.2-43.7,13.7-23.5,26.2-47.7,41.8-70.1,15.6,28,32,55.4,47.8,83.3-14,23.3-26.3,47.5-41,70.4-4.7,8-13.3,13.6-22.7,13.4-14.2.8-56.8,1.4-81.5.6,3-5.4,27.4-48.5,30.4-53.9,0,0,0,0,0,0"/>
    <path id="b108slQyME1" data-name="b108slQyME" class="st1" d="M162.6,293.6c8.2-14.7,16.8-29.1,25.2-43.7,13.7-23.5,26.2-47.7,41.8-70.1,15.6,28,32,55.4,47.8,83.3-14,23.3-26.3,47.5-41,70.4-4.7,8-13.3,13.6-22.7,13.4-14.2.8-56.8,1.4-81.5.6,3-5.4,27.4-48.5,30.4-53.9,0,0,0,0,0,0"/>
  </g>
  <g>
    <path id="bKCkXVP0u" class="st2" d="M162.6,293.6c8.2-14.7,16.8-29.1,25.2-43.7,13.7-23.5,26.2-47.7,41.8-70.1,15.6,28,32,55.4,47.8,83.3-14,23.3-26.3,47.5-41,70.4-4.7,8-13.3,13.6-22.7,13.4-14.2.8-56.8,1.4-81.5.6,3-5.4,27.4-48.5,30.4-53.9,0,0,0,0,0,0"/>
    <path id="bKCkXVP0u1" data-name="bKCkXVP0u" class="st1" d="M162.6,293.6c8.2-14.7,16.8-29.1,25.2-43.7,13.7-23.5,26.2-47.7,41.8-70.1,15.6,28,32,55.4,47.8,83.3-14,23.3-26.3,47.5-41,70.4-4.7,8-13.3,13.6-22.7,13.4-14.2.8-56.8,1.4-81.5.6,3-5.4,27.4-48.5,30.4-53.9,0,0,0,0,0,0"/>
  </g>
  <g>
    <path id="a3DK0CYe95" class="st2" d="M162.6,293.6c8.2-14.7,16.8-29.1,25.2-43.7,13.7-23.5,26.2-47.7,41.8-70.1,15.6,28,32,55.4,47.8,83.3-14,23.3-26.3,47.5-41,70.4-4.7,8-13.3,13.6-22.7,13.4-14.2.8-56.8,1.4-81.5.6,3-5.4,27.4-48.5,30.4-53.9,0,0,0,0,0,0"/>
    <path id="a3DK0CYe951" data-name="a3DK0CYe95" class="st1" d="M162.6,293.6c8.2-14.7,16.8-29.1,25.2-43.7,13.7-23.5,26.2-47.7,41.8-70.1,15.6,28,32,55.4,47.8,83.3-14,23.3-26.3,47.5-41,70.4-4.7,8-13.3,13.6-22.7,13.4-14.2.8-56.8,1.4-81.5.6,3-5.4,27.4-48.5,30.4-53.9,0,0,0,0,0,0"/>
  </g>
  <g>
    <path id="a6FFy6jgqK" class="st2" d="M162.6,293.6c8.2-14.7,16.8-29.1,25.2-43.7,13.7-23.5,26.2-47.7,41.8-70.1,15.6,28,32,55.4,47.8,83.3-14,23.3-26.3,47.5-41,70.4-4.7,8-13.3,13.6-22.7,13.4-14.2.8-56.8,1.4-81.5.6,3-5.4,27.4-48.5,30.4-53.9,0,0,0,0,0,0"/>
    <path id="a6FFy6jgqK1" data-name="a6FFy6jgqK" class="st1" d="M162.6,293.6c8.2-14.7,16.8-29.1,25.2-43.7,13.7-23.5,26.2-47.7,41.8-70.1,15.6,28,32,55.4,47.8,83.3-14,23.3-26.3,47.5-41,70.4-4.7,8-13.3,13.6-22.7,13.4-14.2.8-56.8,1.4-81.5.6,3-5.4,27.4-48.5,30.4-53.9,0,0,0,0,0,0"/>
  </g>
  <g>
    <path id="bNrVUb1D7" class="st4" d="M162.5,61.3c-18.3-32.3-28.4-50.3-30.4-53.9-6.9.2-12.4.5-15.5,1-7.3,1.1-15.1,2.2-21.5,6.1-7.7,4.7-10.9,13.6-15.3,21-5.8,9.8-11.5,19.5-17.2,29.3-11.7,20-23,40.2-34.6,60.2-3.2,5.6-6.5,11.2-9.8,16.8-3.1,5.3-7.2,10.7-9.7,16.4-2.6,5.9-8.3,12.4-7.8,19.1,0,0,0,.1,0,.2s0,.1,0,.2c-.5,6.7,5.2,13.2,7.8,19.1,2.5,5.7,6.6,11.1,9.7,16.4,3.3,5.6,6.5,11.2,9.8,16.8,11.6,20,22.9,40.2,34.6,60.2,5.7,9.8,11.4,19.6,17.2,29.3,4.3,7.3,7.6,16.3,15.3,21,6.4,3.9,14.2,5.1,21.5,6.1,3,.5,8.6.8,15.5,1,3-5.4,27.4-48.5,30.4-53.9-22.3-38.5-45.9-76.5-66.2-116.1,20.3-39.6,43.9-77.6,66.2-116.2"/>
    <path id="bNrVUb1D71" data-name="bNrVUb1D7" class="st1" d="M162.5,61.3c-18.3-32.3-28.4-50.3-30.4-53.9-6.9.2-12.4.5-15.5,1-7.3,1.1-15.1,2.2-21.5,6.1-7.7,4.7-10.9,13.6-15.3,21-5.8,9.8-11.5,19.5-17.2,29.3-11.7,20-23,40.2-34.6,60.2-3.2,5.6-6.5,11.2-9.8,16.8-3.1,5.3-7.2,10.7-9.7,16.4-2.6,5.9-8.3,12.4-7.8,19.1,0,0,0,.1,0,.2s0,.1,0,.2c-.5,6.7,5.2,13.2,7.8,19.1,2.5,5.7,6.6,11.1,9.7,16.4,3.3,5.6,6.5,11.2,9.8,16.8,11.6,20,22.9,40.2,34.6,60.2,5.7,9.8,11.4,19.6,17.2,29.3,4.3,7.3,7.6,16.3,15.3,21,6.4,3.9,14.2,5.1,21.5,6.1,3,.5,8.6.8,15.5,1,3-5.4,27.4-48.5,30.4-53.9-22.3-38.5-45.9-76.5-66.2-116.1,20.3-39.6,43.9-77.6,66.2-116.2"/>
  </g>
  <g>
    <path id="a2r27RDPY3" class="st2" d="M162.5,61.3c-18.3-32.3-28.4-50.3-30.4-53.9-6.9.2-12.4.5-15.5,1-7.3,1.1-15.1,2.2-21.5,6.1-7.7,4.7-10.9,13.6-15.3,21-5.8,9.8-11.5,19.5-17.2,29.3-11.7,20-23,40.2-34.6,60.2-3.2,5.6-6.5,11.2-9.8,16.8-3.1,5.3-7.2,10.7-9.7,16.4-2.6,5.9-8.3,12.4-7.8,19.1,0,0,0,.1,0,.2s0,.1,0,.2c-.5,6.7,5.2,13.2,7.8,19.1,2.5,5.7,6.6,11.1,9.7,16.4,3.3,5.6,6.5,11.2,9.8,16.8,11.6,20,22.9,40.2,34.6,60.2,5.7,9.8,11.4,19.6,17.2,29.3,4.3,7.3,7.6,16.3,15.3,21,6.4,3.9,14.2,5.1,21.5,6.1,3,.5,8.6.8,15.5,1,3-5.4,27.4-48.5,30.4-53.9-22.3-38.5-45.9-76.5-66.2-116.1,20.3-39.6,43.9-77.6,66.2-116.2"/>
    <path id="a2r27RDPY31" data-name="a2r27RDPY3" class="st1" d="M162.5,61.3c-18.3-32.3-28.4-50.3-30.4-53.9-6.9.2-12.4.5-15.5,1-7.3,1.1-15.1,2.2-21.5,6.1-7.7,4.7-10.9,13.6-15.3,21-5.8,9.8-11.5,19.5-17.2,29.3-11.7,20-23,40.2-34.6,60.2-3.2,5.6-6.5,11.2-9.8,16.8-3.1,5.3-7.2,10.7-9.7,16.4-2.6,5.9-8.3,12.4-7.8,19.1,0,0,0,.1,0,.2s0,.1,0,.2c-.5,6.7,5.2,13.2,7.8,19.1,2.5,5.7,6.6,11.1,9.7,16.4,3.3,5.6,6.5,11.2,9.8,16.8,11.6,20,22.9,40.2,34.6,60.2,5.7,9.8,11.4,19.6,17.2,29.3,4.3,7.3,7.6,16.3,15.3,21,6.4,3.9,14.2,5.1,21.5,6.1,3,.5,8.6.8,15.5,1,3-5.4,27.4-48.5,30.4-53.9-22.3-38.5-45.9-76.5-66.2-116.1,20.3-39.6,43.9-77.6,66.2-116.2"/>
  </g>
  <g>
    <path id="ccXsxDcOA" class="st2" d="M162.5,61.3c-18.3-32.3-28.4-50.3-30.4-53.9-6.9.2-12.4.5-15.5,1-7.3,1.1-15.1,2.2-21.5,6.1-7.7,4.7-10.9,13.6-15.3,21-5.8,9.8-11.5,19.5-17.2,29.3-11.7,20-23,40.2-34.6,60.2-3.2,5.6-6.5,11.2-9.8,16.8-3.1,5.3-7.2,10.7-9.7,16.4-2.6,5.9-8.3,12.4-7.8,19.1,0,0,0,.1,0,.2s0,.1,0,.2c-.5,6.7,5.2,13.2,7.8,19.1,2.5,5.7,6.6,11.1,9.7,16.4,3.3,5.6,6.5,11.2,9.8,16.8,11.6,20,22.9,40.2,34.6,60.2,5.7,9.8,11.4,19.6,17.2,29.3,4.3,7.3,7.6,16.3,15.3,21,6.4,3.9,14.2,5.1,21.5,6.1,3,.5,8.6.8,15.5,1,3-5.4,27.4-48.5,30.4-53.9-22.3-38.5-45.9-76.5-66.2-116.1,20.3-39.6,43.9-77.6,66.2-116.2"/>
    <path id="ccXsxDcOA1" data-name="ccXsxDcOA" class="st1" d="M162.5,61.3c-18.3-32.3-28.4-50.3-30.4-53.9-6.9.2-12.4.5-15.5,1-7.3,1.1-15.1,2.2-21.5,6.1-7.7,4.7-10.9,13.6-15.3,21-5.8,9.8-11.5,19.5-17.2,29.3-11.7,20-23,40.2-34.6,60.2-3.2,5.6-6.5,11.2-9.8,16.8-3.1,5.3-7.2,10.7-9.7,16.4-2.6,5.9-8.3,12.4-7.8,19.1,0,0,0,.1,0,.2s0,.1,0,.2c-.5,6.7,5.2,13.2,7.8,19.1,2.5,5.7,6.6,11.1,9.7,16.4,3.3,5.6,6.5,11.2,9.8,16.8,11.6,20,22.9,40.2,34.6,60.2,5.7,9.8,11.4,19.6,17.2,29.3,4.3,7.3,7.6,16.3,15.3,21,6.4,3.9,14.2,5.1,21.5,6.1,3,.5,8.6.8,15.5,1,3-5.4,27.4-48.5,30.4-53.9-22.3-38.5-45.9-76.5-66.2-116.1,20.3-39.6,43.9-77.6,66.2-116.2"/>
  </g>
  <g>
    <path id="hEyUrNlof" class="st2" d="M162.5,61.3c-18.3-32.3-28.4-50.3-30.4-53.9-6.9.2-12.4.5-15.5,1-7.3,1.1-15.1,2.2-21.5,6.1-7.7,4.7-10.9,13.6-15.3,21-5.8,9.8-11.5,19.5-17.2,29.3-11.7,20-23,40.2-34.6,60.2-3.2,5.6-6.5,11.2-9.8,16.8-3.1,5.3-7.2,10.7-9.7,16.4-2.6,5.9-8.3,12.4-7.8,19.1,0,0,0,.1,0,.2s0,.1,0,.2c-.5,6.7,5.2,13.2,7.8,19.1,2.5,5.7,6.6,11.1,9.7,16.4,3.3,5.6,6.5,11.2,9.8,16.8,11.6,20,22.9,40.2,34.6,60.2,5.7,9.8,11.4,19.6,17.2,29.3,4.3,7.3,7.6,16.3,15.3,21,6.4,3.9,14.2,5.1,21.5,6.1,3,.5,8.6.8,15.5,1,3-5.4,27.4-48.5,30.4-53.9-22.3-38.5-45.9-76.5-66.2-116.1,20.3-39.6,43.9-77.6,66.2-116.2"/>
    <path id="hEyUrNlof1" data-name="hEyUrNlof" class="st1" d="M162.5,61.3c-18.3-32.3-28.4-50.3-30.4-53.9-6.9.2-12.4.5-15.5,1-7.3,1.1-15.1,2.2-21.5,6.1-7.7,4.7-10.9,13.6-15.3,21-5.8,9.8-11.5,19.5-17.2,29.3-11.7,20-23,40.2-34.6,60.2-3.2,5.6-6.5,11.2-9.8,16.8-3.1,5.3-7.2,10.7-9.7,16.4-2.6,5.9-8.3,12.4-7.8,19.1,0,0,0,.1,0,.2s0,.1,0,.2c-.5,6.7,5.2,13.2,7.8,19.1,2.5,5.7,6.6,11.1,9.7,16.4,3.3,5.6,6.5,11.2,9.8,16.8,11.6,20,22.9,40.2,34.6,60.2,5.7,9.8,11.4,19.6,17.2,29.3,4.3,7.3,7.6,16.3,15.3,21,6.4,3.9,14.2,5.1,21.5,6.1,3,.5,8.6.8,15.5,1,3-5.4,27.4-48.5,30.4-53.9-22.3-38.5-45.9-76.5-66.2-116.1,20.3-39.6,43.9-77.6,66.2-116.2"/>
  </g>
</svg>