<?xml version="1.0" encoding="UTF-8" standalone="no"?>
<!DOCTYPE svg PUBLIC "-//W3C//DTD SVG 1.1//EN" "http://www.w3.org/Graphics/SVG/1.1/DTD/svg11.dtd">
<svg version="1.1"
  xmlns="http://www.w3.org/2000/svg"
  xmlns:xlink="http://www.w3.org/1999/xlink" preserveAspectRatio="xMidYMid meet" viewBox="0 0 1050 350" width="1050" height="350">
  <defs>
    <path d="M482.96 201.59C434.2 201.59 408.7 172.67 408.7 131.27C408.7 89.86 435.22 59.57 483.13 59.57C507.94 59.57 526.59 67.44 541.14 83.87C539.14 85.87 523.12 101.89 521.12 103.89C512.22 91.74 499.73 85.41 483.13 85.41C451.65 85.41 438.3 104.92 438.3 131.27C438.3 156.76 450.79 175.58 482.96 175.58C499.56 175.58 512.56 169.08 521.63 157.28C525.57 161.18 537.37 172.88 541.31 176.78C526.59 192.69 506.74 201.59 482.96 201.59Z" id="buLQEK0lA"></path>
    <path d="M482.96 201.59C434.2 201.59 408.7 172.67 408.7 131.27C408.7 89.86 435.22 59.57 483.13 59.57C507.94 59.57 526.59 67.44 541.14 83.87C539.14 85.87 523.12 101.89 521.12 103.89C512.22 91.74 499.73 85.41 483.13 85.41C451.65 85.41 438.3 104.92 438.3 131.27C438.3 156.76 450.79 175.58 482.96 175.58C499.56 175.58 512.56 169.08 521.63 157.28C525.57 161.18 537.37 172.88 541.31 176.78C526.59 192.69 506.74 201.59 482.96 201.59Z" id="auLxoJB6N"></path>
    <path d="M647.74 85.41C618.31 85.41 605.99 104.57 605.99 131.27C605.99 157.1 618.31 175.41 647.74 175.41C677.51 175.41 689.49 157.1 689.49 131.27C689.49 105.26 677.51 85.41 647.74 85.41M647.74 201.42C601.03 201.42 576.39 172.5 576.39 131.27C576.39 90.03 601.03 59.4 647.74 59.4C694.79 59.4 719.09 90.03 719.09 131.27C719.09 172.5 693.77 201.42 647.74 201.42" id="aHwfOZClU"></path>
    <path d="M647.74 85.41C618.31 85.41 605.99 104.57 605.99 131.27C605.99 157.1 618.31 175.41 647.74 175.41C677.51 175.41 689.49 157.1 689.49 131.27C689.49 105.26 677.51 85.41 647.74 85.41M647.74 201.42C601.03 201.42 576.39 172.5 576.39 131.27C576.39 90.03 601.03 59.4 647.74 59.4C694.79 59.4 719.09 90.03 719.09 131.27C719.09 172.5 693.77 201.42 647.74 201.42" id="aFh1sEEgT"></path>
    <path d="M764.44 199.71L764.44 61.11L793.53 61.11L793.53 171.14L790.96 173.7L871.04 173.7L871.04 199.71L764.44 199.71Z" id="aLIU08pW4"></path>
    <path d="M764.44 199.71L764.44 61.11L793.53 61.11L793.53 171.14L790.96 173.7L871.04 173.7L871.04 199.71L764.44 199.71Z" id="bBupeBjAD"></path>
    <path d="M909.55 199.71L909.55 61.11L1024.19 61.11L1024.19 87.12L935.9 87.12L938.63 89.86L938.63 114.67L935.9 117.41L1015.97 117.41L1015.97 143.42L935.9 143.42L938.63 146.15L938.63 170.96L935.9 173.7L1024.19 173.7L1024.19 199.71L909.55 199.71Z" id="e1eWltF0Kf"></path>
    <path d="M909.55 199.71L909.55 61.11L1024.19 61.11L1024.19 87.12L935.9 87.12L938.63 89.86L938.63 114.67L935.9 117.41L1015.97 117.41L1015.97 143.42L935.9 143.42L938.63 146.15L938.63 170.96L935.9 173.7L1024.19 173.7L1024.19 199.71L909.55 199.71Z" id="a3CQh3c5md"></path>
    <path d="M446.69 290.6C429.1 290.6 419.91 280.17 419.91 265.24C419.91 250.31 429.47 239.39 446.74 239.39C455.69 239.39 462.42 242.23 467.66 248.15C466.94 248.87 461.16 254.65 460.44 255.37C457.24 250.99 452.73 248.7 446.74 248.7C435.39 248.7 430.58 255.74 430.58 265.24C430.58 274.44 435.08 281.22 446.69 281.22C452.67 281.22 457.36 278.88 460.63 274.62C462.05 276.03 466.31 280.25 467.73 281.66C462.42 287.39 455.26 290.6 446.69 290.6Z" id="bqYtnLUGv"></path>
    <path d="M446.69 290.6C429.1 290.6 419.91 280.17 419.91 265.24C419.91 250.31 429.47 239.39 446.74 239.39C455.69 239.39 462.42 242.23 467.66 248.15C466.94 248.87 461.16 254.65 460.44 255.37C457.24 250.99 452.73 248.7 446.74 248.7C435.39 248.7 430.58 255.74 430.58 265.24C430.58 274.44 435.08 281.22 446.69 281.22C452.67 281.22 457.36 278.88 460.63 274.62C462.05 276.03 466.31 280.25 467.73 281.66C462.42 287.39 455.26 290.6 446.69 290.6Z" id="eDFN6ajPV"></path>
    <path d="M518.74 249.32L503.13 249.32L504.11 250.25L504.11 262.09C503.52 262.68 503.19 263.01 503.13 263.08C512.49 263.08 517.7 263.08 518.74 263.08C524.6 263.08 526.88 260.18 526.88 256.17C526.88 251.97 524.6 249.32 518.74 249.32M518.74 272.46L503.13 272.46L504.11 273.39L504.11 289.92L493.63 289.92C493.63 259.93 493.63 243.27 493.63 239.94C508.69 239.94 517.06 239.94 518.74 239.94C530.58 239.94 537.56 246.67 537.56 256.17C537.56 265.3 530.58 272.46 518.74 272.46" id="a4qOzbY8S6"></path>
    <path d="M518.74 249.32L503.13 249.32L504.11 250.25L504.11 262.09C503.52 262.68 503.19 263.01 503.13 263.08C512.49 263.08 517.7 263.08 518.74 263.08C524.6 263.08 526.88 260.18 526.88 256.17C526.88 251.97 524.6 249.32 518.74 249.32M518.74 272.46L503.13 272.46L504.11 273.39L504.11 289.92L493.63 289.92C493.63 259.93 493.63 243.27 493.63 239.94C508.69 239.94 517.06 239.94 518.74 239.94C530.58 239.94 537.56 246.67 537.56 256.17C537.56 265.3 530.58 272.46 518.74 272.46" id="e5ZtXCAo82"></path>
    <path d="M591.53 268.27L586.35 257.41L584.81 252.84L584.69 252.9L583.14 257.41L577.96 268.27L576.91 269.25L592.58 269.25L591.53 268.27ZM601.9 289.92L596.66 278.94L597.27 278.01L572.16 278.01L572.78 278.94L567.59 289.92L556.06 289.92L580.12 239.94L589.37 239.94L613.38 289.92L601.9 289.92Z" id="d4IcZqZC0y"></path>
    <path d="M591.53 268.27L586.35 257.41L584.81 252.84L584.69 252.9L583.14 257.41L577.96 268.27L576.91 269.25L592.58 269.25L591.53 268.27ZM601.9 289.92L596.66 278.94L597.27 278.01L572.16 278.01L572.78 278.94L567.59 289.92L556.06 289.92L580.12 239.94L589.37 239.94L613.38 289.92L601.9 289.92Z" id="a2eUMBo5Fw"></path>
    <path d="M715.04 289.99C715.04 287.13 715.04 285.55 715.04 285.23C712.08 288.38 706.22 290.54 700.48 290.54C683.57 290.54 673.82 280.67 673.82 265.36C673.82 249.76 683.82 239.33 700.85 239.33C708.87 239.33 716.4 241.73 721.52 247.04C720.8 247.77 715.02 253.59 714.3 254.32C710.78 250.25 706.15 248.64 700.85 248.64C689.68 248.64 684.5 254.75 684.5 265.36C684.5 275.48 689.43 281.22 700.48 281.22C708.19 281.22 713.56 276.72 714.24 270.55C714.31 270.48 714.66 270.15 715.29 269.56C714.13 269.56 708.35 269.56 697.95 269.56L697.95 260.24L724.11 260.24L724.11 289.99C718.66 289.99 715.64 289.99 715.04 289.99Z" id="a1E4lGYnZ"></path>
    <path d="M715.04 289.99C715.04 287.13 715.04 285.55 715.04 285.23C712.08 288.38 706.22 290.54 700.48 290.54C683.57 290.54 673.82 280.67 673.82 265.36C673.82 249.76 683.82 239.33 700.85 239.33C708.87 239.33 716.4 241.73 721.52 247.04C720.8 247.77 715.02 253.59 714.3 254.32C710.78 250.25 706.15 248.64 700.85 248.64C689.68 248.64 684.5 254.75 684.5 265.36C684.5 275.48 689.43 281.22 700.48 281.22C708.19 281.22 713.56 276.72 714.24 270.55C714.31 270.48 714.66 270.15 715.29 269.56C714.13 269.56 708.35 269.56 697.95 269.56L697.95 260.24L724.11 260.24L724.11 289.99C718.66 289.99 715.64 289.99 715.04 289.99Z" id="a1iS8bbrQ"></path>
    <path d="M777.9 249.32L763.22 249.32L764.2 250.25L764.2 261.17C763.61 261.76 763.28 262.09 763.22 262.16C771.66 262.16 776.34 262.16 777.28 262.16C783.7 262.16 786.35 259.07 786.35 255.8C786.35 251.54 783.39 249.32 777.9 249.32M790.67 289.92C786.56 282 784.28 277.6 783.82 276.72C781.79 272.83 778.95 271.1 773.15 271.1C772.49 271.1 769.18 271.1 763.22 271.1C763.28 271.16 763.61 271.47 764.2 272.03L764.2 289.92L753.71 289.92C753.71 259.93 753.71 243.27 753.71 239.94C768.23 239.94 776.29 239.94 777.9 239.94C787.83 239.94 797.03 244.88 797.03 255.56C797.03 260.86 792.96 265.67 788.51 267.71C788.51 267.72 788.51 267.82 788.51 267.84C790.18 268.57 792.21 270.42 793.57 273.02C794.76 275.27 797.72 280.91 802.46 289.92C800.1 289.92 791.85 289.92 790.67 289.92Z" id="a1VGoJ7inR"></path>
    <path d="M777.9 249.32L763.22 249.32L764.2 250.25L764.2 261.17C763.61 261.76 763.28 262.09 763.22 262.16C771.66 262.16 776.34 262.16 777.28 262.16C783.7 262.16 786.35 259.07 786.35 255.8C786.35 251.54 783.39 249.32 777.9 249.32M790.67 289.92C786.56 282 784.28 277.6 783.82 276.72C781.79 272.83 778.95 271.1 773.15 271.1C772.49 271.1 769.18 271.1 763.22 271.1C763.28 271.16 763.61 271.47 764.2 272.03L764.2 289.92L753.71 289.92C753.71 259.93 753.71 243.27 753.71 239.94C768.23 239.94 776.29 239.94 777.9 239.94C787.83 239.94 797.03 244.88 797.03 255.56C797.03 260.86 792.96 265.67 788.51 267.71C788.51 267.72 788.51 267.82 788.51 267.84C790.18 268.57 792.21 270.42 793.57 273.02C794.76 275.27 797.72 280.91 802.46 289.92C800.1 289.92 791.85 289.92 790.67 289.92Z" id="d4HvJSBdw8"></path>
    <path d="M850.39 248.7C839.77 248.7 835.33 255.61 835.33 265.24C835.33 274.56 839.77 281.16 850.39 281.16C861.12 281.16 865.44 274.56 865.44 265.24C865.44 255.87 861.12 248.7 850.39 248.7M850.39 290.54C833.54 290.54 824.66 280.11 824.66 265.24C824.66 250.37 833.54 239.33 850.39 239.33C867.35 239.33 876.11 250.37 876.11 265.24C876.11 280.11 866.98 290.54 850.39 290.54" id="fHMGen4D3"></path>
    <path d="M850.39 248.7C839.77 248.7 835.33 255.61 835.33 265.24C835.33 274.56 839.77 281.16 850.39 281.16C861.12 281.16 865.44 274.56 865.44 265.24C865.44 255.87 861.12 248.7 850.39 248.7M850.39 290.54C833.54 290.54 824.66 280.11 824.66 265.24C824.66 250.37 833.54 239.33 850.39 239.33C867.35 239.33 876.11 250.37 876.11 265.24C876.11 280.11 866.98 290.54 850.39 290.54" id="g49LqPTjV"></path>
    <path d="M926.82 290.54C910.84 290.54 903.25 281.96 903.25 266.91C903.25 265.11 903.25 256.12 903.25 239.94C904.3 239.94 912.69 239.94 913.74 239.94C913.74 256.09 913.74 265.05 913.74 266.85C913.74 276.29 917.2 281.16 926.76 281.16C936.2 281.16 939.78 276.29 939.78 266.85C939.78 265.05 939.78 256.09 939.78 239.94C940.83 239.94 949.22 239.94 950.27 239.94C950.27 254.32 950.27 263.31 950.27 266.91C950.27 281.84 942.74 290.54 926.82 290.54Z" id="h4kIlSaHE"></path>
    <path d="M926.82 290.54C910.84 290.54 903.25 281.96 903.25 266.91C903.25 265.11 903.25 256.12 903.25 239.94C904.3 239.94 912.69 239.94 913.74 239.94C913.74 256.09 913.74 265.05 913.74 266.85C913.74 276.29 917.2 281.16 926.76 281.16C936.2 281.16 939.78 276.29 939.78 266.85C939.78 265.05 939.78 256.09 939.78 239.94C940.83 239.94 949.22 239.94 950.27 239.94C950.27 254.32 950.27 263.31 950.27 266.91C950.27 281.84 942.74 290.54 926.82 290.54Z" id="dtnGNf9bx"></path>
    <path d="M1004.67 249.32L989.06 249.32L990.05 250.25L990.05 262.09C989.45 262.68 989.12 263.01 989.06 263.08C998.43 263.08 1003.63 263.08 1004.67 263.08C1010.53 263.08 1012.82 260.18 1012.82 256.17C1012.82 251.97 1010.53 249.32 1004.67 249.32M1004.67 272.46L989.06 272.46L990.05 273.39L990.05 289.92L979.56 289.92C979.56 259.93 979.56 243.27 979.56 239.94C994.63 239.94 1003 239.94 1004.67 239.94C1016.52 239.94 1023.49 246.67 1023.49 256.17C1023.49 265.3 1016.52 272.46 1004.67 272.46" id="aDrpI283r"></path>
    <path d="M1004.67 249.32L989.06 249.32L990.05 250.25L990.05 262.09C989.45 262.68 989.12 263.01 989.06 263.08C998.43 263.08 1003.63 263.08 1004.67 263.08C1010.53 263.08 1012.82 260.18 1012.82 256.17C1012.82 251.97 1010.53 249.32 1004.67 249.32M1004.67 272.46L989.06 272.46L990.05 273.39L990.05 289.92L979.56 289.92C979.56 259.93 979.56 243.27 979.56 239.94C994.63 239.94 1003 239.94 1004.67 239.94C1016.52 239.94 1023.49 246.67 1023.49 256.17C1023.49 265.3 1016.52 272.46 1004.67 272.46" id="cvfKcmir9"></path>
    <path d="M187.58 58.8C195.74 73.49 204.33 87.93 212.74 102.49C226.46 125.95 238.95 150.15 254.49 172.58C270.09 144.61 286.48 117.12 302.27 89.33C288.25 66.05 275.94 41.79 261.25 18.94C256.56 10.96 247.96 5.36 238.58 5.53C224.35 4.7 181.74 4.18 157.11 4.97C160.15 10.36 184.5 53.46 187.55 58.85C187.55 58.83 187.57 58.81 187.58 58.8" id="d4WnZmNSKf"></path>
    <path d="M187.58 58.8C195.74 73.49 204.33 87.93 212.74 102.49C226.46 125.95 238.95 150.15 254.49 172.58C270.09 144.61 286.48 117.12 302.27 89.33C288.25 66.05 275.94 41.79 261.25 18.94C256.56 10.96 247.96 5.36 238.58 5.53C224.35 4.7 181.74 4.18 157.11 4.97C160.15 10.36 184.5 53.46 187.55 58.85C187.55 58.83 187.57 58.81 187.58 58.8" id="a1ERBagFVe"></path>
    <path d="M187.58 291.2C195.74 276.51 204.33 262.08 212.74 247.51C226.46 224.05 238.95 199.85 254.49 177.42C270.09 205.39 286.48 232.87 302.27 260.67C288.25 283.95 275.94 308.21 261.25 331.06C256.56 339.04 247.96 344.64 238.58 344.47C224.35 345.3 181.74 345.82 157.11 345.03C160.15 339.65 184.5 296.54 187.55 291.15C187.55 291.18 187.57 291.19 187.58 291.2" id="a55GwIz5"></path>
    <path d="M187.58 291.2C195.74 276.51 204.33 262.08 212.74 247.51C226.46 224.05 238.95 199.85 254.49 177.42C270.09 205.39 286.48 232.87 302.27 260.67C288.25 283.95 275.94 308.21 261.25 331.06C256.56 339.04 247.96 344.64 238.58 344.47C224.35 345.3 181.74 345.82 157.11 345.03C160.15 339.65 184.5 296.54 187.55 291.15C187.55 291.18 187.57 291.19 187.58 291.2" id="aY8OlhI2Z"></path>
    <path d="M187.55 58.85C169.28 26.52 159.14 8.56 157.11 4.97C150.24 5.18 144.68 5.51 141.63 5.95C134.37 7.02 126.51 8.19 120.13 12.08C112.47 16.76 109.22 25.71 104.87 33.06C99.11 42.81 93.41 52.59 87.71 62.36C76.05 82.36 64.69 102.53 53.13 122.56C49.89 128.18 46.62 133.76 43.35 139.35C40.2 144.7 36.14 150.09 33.64 155.76C31.04 161.63 25.33 168.18 25.85 174.84C25.84 174.89 25.85 174.95 25.85 175C25.85 175.06 25.84 175.11 25.85 175.17C25.33 181.83 31.04 188.37 33.64 194.24C36.14 199.91 40.2 205.3 43.35 210.65C46.62 216.24 49.89 221.83 53.13 227.44C64.69 247.48 76.05 267.65 87.71 287.64C93.41 297.41 99.11 307.2 104.87 316.95C109.22 324.29 112.47 333.24 120.13 337.92C126.51 341.81 134.37 342.99 141.63 344.05C144.68 344.5 150.24 344.82 157.11 345.04C160.15 339.65 184.5 296.54 187.55 291.15C165.23 252.61 141.7 214.63 121.37 175C141.7 135.36 165.23 97.4 187.55 58.85" id="csPqYIM3k"></path>
    <path d="M187.55 58.85C169.28 26.52 159.14 8.56 157.11 4.97C150.24 5.18 144.68 5.51 141.63 5.95C134.37 7.02 126.51 8.19 120.13 12.08C112.47 16.76 109.22 25.71 104.87 33.06C99.11 42.81 93.41 52.59 87.71 62.36C76.05 82.36 64.69 102.53 53.13 122.56C49.89 128.18 46.62 133.76 43.35 139.35C40.2 144.7 36.14 150.09 33.64 155.76C31.04 161.63 25.33 168.18 25.85 174.84C25.84 174.89 25.85 174.95 25.85 175C25.85 175.06 25.84 175.11 25.85 175.17C25.33 181.83 31.04 188.37 33.64 194.24C36.14 199.91 40.2 205.3 43.35 210.65C46.62 216.24 49.89 221.83 53.13 227.44C64.69 247.48 76.05 267.65 87.71 287.64C93.41 297.41 99.11 307.2 104.87 316.95C109.22 324.29 112.47 333.24 120.13 337.92C126.51 341.81 134.37 342.99 141.63 344.05C144.68 344.5 150.24 344.82 157.11 345.04C160.15 339.65 184.5 296.54 187.55 291.15C165.23 252.61 141.7 214.63 121.37 175C141.7 135.36 165.23 97.4 187.55 58.85" id="c19bVX75EK"></path>
  </defs>
  <g>
    <g>
      <g>
        <use xlink:href="#buLQEK0lA" opacity="1" fill="#033c73" fill-opacity="1"></use>
        <g>
          <use xlink:href="#buLQEK0lA" opacity="1" fill-opacity="0" stroke="#000000" stroke-width="1" stroke-opacity="0"></use>
        </g>
      </g>
      <g>
        <use xlink:href="#auLxoJB6N" opacity="1" fill="#000000" fill-opacity="0"></use>
        <g>
          <use xlink:href="#auLxoJB6N" opacity="1" fill-opacity="0" stroke="#000000" stroke-width="1" stroke-opacity="0"></use>
        </g>
      </g>
      <g>
        <use xlink:href="#aHwfOZClU" opacity="1" fill="#033c73" fill-opacity="1"></use>
        <g>
          <use xlink:href="#aHwfOZClU" opacity="1" fill-opacity="0" stroke="#000000" stroke-width="1" stroke-opacity="0"></use>
        </g>
      </g>
      <g>
        <use xlink:href="#aFh1sEEgT" opacity="1" fill="#000000" fill-opacity="0"></use>
        <g>
          <use xlink:href="#aFh1sEEgT" opacity="1" fill-opacity="0" stroke="#000000" stroke-width="1" stroke-opacity="0"></use>
        </g>
      </g>
      <g>
        <use xlink:href="#aLIU08pW4" opacity="1" fill="#033c73" fill-opacity="1"></use>
        <g>
          <use xlink:href="#aLIU08pW4" opacity="1" fill-opacity="0" stroke="#000000" stroke-width="1" stroke-opacity="0"></use>
        </g>
      </g>
      <g>
        <use xlink:href="#bBupeBjAD" opacity="1" fill="#000000" fill-opacity="0"></use>
        <g>
          <use xlink:href="#bBupeBjAD" opacity="1" fill-opacity="0" stroke="#000000" stroke-width="1" stroke-opacity="0"></use>
        </g>
      </g>
      <g>
        <use xlink:href="#e1eWltF0Kf" opacity="1" fill="#033c73" fill-opacity="1"></use>
        <g>
          <use xlink:href="#e1eWltF0Kf" opacity="1" fill-opacity="0" stroke="#000000" stroke-width="1" stroke-opacity="0"></use>
        </g>
      </g>
      <g>
        <use xlink:href="#a3CQh3c5md" opacity="1" fill="#000000" fill-opacity="0"></use>
        <g>
          <use xlink:href="#a3CQh3c5md" opacity="1" fill-opacity="0" stroke="#000000" stroke-width="1" stroke-opacity="0"></use>
        </g>
      </g>
      <g>
        <use xlink:href="#bqYtnLUGv" opacity="1" fill="#033c73" fill-opacity="1"></use>
        <g>
          <use xlink:href="#bqYtnLUGv" opacity="1" fill-opacity="0" stroke="#000000" stroke-width="1" stroke-opacity="0"></use>
        </g>
      </g>
      <g>
        <use xlink:href="#eDFN6ajPV" opacity="1" fill="#000000" fill-opacity="0"></use>
        <g>
          <use xlink:href="#eDFN6ajPV" opacity="1" fill-opacity="0" stroke="#000000" stroke-width="1" stroke-opacity="0"></use>
        </g>
      </g>
      <g>
        <use xlink:href="#a4qOzbY8S6" opacity="1" fill="#033c73" fill-opacity="1"></use>
        <g>
          <use xlink:href="#a4qOzbY8S6" opacity="1" fill-opacity="0" stroke="#000000" stroke-width="1" stroke-opacity="0"></use>
        </g>
      </g>
      <g>
        <use xlink:href="#e5ZtXCAo82" opacity="1" fill="#000000" fill-opacity="0"></use>
        <g>
          <use xlink:href="#e5ZtXCAo82" opacity="1" fill-opacity="0" stroke="#000000" stroke-width="1" stroke-opacity="0"></use>
        </g>
      </g>
      <g>
        <use xlink:href="#d4IcZqZC0y" opacity="1" fill="#033c73" fill-opacity="1"></use>
        <g>
          <use xlink:href="#d4IcZqZC0y" opacity="1" fill-opacity="0" stroke="#000000" stroke-width="1" stroke-opacity="0"></use>
        </g>
      </g>
      <g>
        <use xlink:href="#a2eUMBo5Fw" opacity="1" fill="#000000" fill-opacity="0"></use>
        <g>
          <use xlink:href="#a2eUMBo5Fw" opacity="1" fill-opacity="0" stroke="#000000" stroke-width="1" stroke-opacity="0"></use>
        </g>
      </g>
      <g>
        <use xlink:href="#a1E4lGYnZ" opacity="1" fill="#033c73" fill-opacity="1"></use>
        <g>
          <use xlink:href="#a1E4lGYnZ" opacity="1" fill-opacity="0" stroke="#000000" stroke-width="1" stroke-opacity="0"></use>
        </g>
      </g>
      <g>
        <use xlink:href="#a1iS8bbrQ" opacity="1" fill="#000000" fill-opacity="0"></use>
        <g>
          <use xlink:href="#a1iS8bbrQ" opacity="1" fill-opacity="0" stroke="#000000" stroke-width="1" stroke-opacity="0"></use>
        </g>
      </g>
      <g>
        <use xlink:href="#a1VGoJ7inR" opacity="1" fill="#033c73" fill-opacity="1"></use>
        <g>
          <use xlink:href="#a1VGoJ7inR" opacity="1" fill-opacity="0" stroke="#000000" stroke-width="1" stroke-opacity="0"></use>
        </g>
      </g>
      <g>
        <use xlink:href="#d4HvJSBdw8" opacity="1" fill="#000000" fill-opacity="0"></use>
        <g>
          <use xlink:href="#d4HvJSBdw8" opacity="1" fill-opacity="0" stroke="#000000" stroke-width="1" stroke-opacity="0"></use>
        </g>
      </g>
      <g>
        <use xlink:href="#fHMGen4D3" opacity="1" fill="#033c73" fill-opacity="1"></use>
        <g>
          <use xlink:href="#fHMGen4D3" opacity="1" fill-opacity="0" stroke="#000000" stroke-width="1" stroke-opacity="0"></use>
        </g>
      </g>
      <g>
        <use xlink:href="#g49LqPTjV" opacity="1" fill="#000000" fill-opacity="0"></use>
        <g>
          <use xlink:href="#g49LqPTjV" opacity="1" fill-opacity="0" stroke="#000000" stroke-width="1" stroke-opacity="0"></use>
        </g>
      </g>
      <g>
        <use xlink:href="#h4kIlSaHE" opacity="1" fill="#033c73" fill-opacity="1"></use>
        <g>
          <use xlink:href="#h4kIlSaHE" opacity="1" fill-opacity="0" stroke="#000000" stroke-width="1" stroke-opacity="0"></use>
        </g>
      </g>
      <g>
        <use xlink:href="#dtnGNf9bx" opacity="1" fill="#000000" fill-opacity="0"></use>
        <g>
          <use xlink:href="#dtnGNf9bx" opacity="1" fill-opacity="0" stroke="#000000" stroke-width="1" stroke-opacity="0"></use>
        </g>
      </g>
      <g>
        <use xlink:href="#aDrpI283r" opacity="1" fill="#033c73" fill-opacity="1"></use>
        <g>
          <use xlink:href="#aDrpI283r" opacity="1" fill-opacity="0" stroke="#000000" stroke-width="1" stroke-opacity="0"></use>
        </g>
      </g>
      <g>
        <use xlink:href="#cvfKcmir9" opacity="1" fill="#000000" fill-opacity="0"></use>
        <g>
          <use xlink:href="#cvfKcmir9" opacity="1" fill-opacity="0" stroke="#000000" stroke-width="1" stroke-opacity="0"></use>
        </g>
      </g>
      <g>
        <use xlink:href="#d4WnZmNSKf" opacity="1" fill="#10bdff" fill-opacity="1"></use>
        <g>
          <use xlink:href="#d4WnZmNSKf" opacity="1" fill-opacity="0" stroke="#000000" stroke-width="1" stroke-opacity="0"></use>
        </g>
      </g>
      <g>
        <use xlink:href="#a1ERBagFVe" opacity="1" fill="#000000" fill-opacity="0"></use>
        <g>
          <use xlink:href="#a1ERBagFVe" opacity="1" fill-opacity="0" stroke="#000000" stroke-width="1" stroke-opacity="0"></use>
        </g>
      </g>
      <g>
        <use xlink:href="#a55GwIz5" opacity="1" fill="#1997ff" fill-opacity="1"></use>
        <g>
          <use xlink:href="#a55GwIz5" opacity="1" fill-opacity="0" stroke="#000000" stroke-width="1" stroke-opacity="0"></use>
        </g>
      </g>
      <g>
        <use xlink:href="#aY8OlhI2Z" opacity="1" fill="#000000" fill-opacity="0"></use>
        <g>
          <use xlink:href="#aY8OlhI2Z" opacity="1" fill-opacity="0" stroke="#000000" stroke-width="1" stroke-opacity="0"></use>
        </g>
      </g>
      <g>
        <use xlink:href="#csPqYIM3k" opacity="1" fill="#0b62db" fill-opacity="1"></use>
        <g>
          <use xlink:href="#csPqYIM3k" opacity="1" fill-opacity="0" stroke="#000000" stroke-width="1" stroke-opacity="0"></use>
        </g>
      </g>
      <g>
        <use xlink:href="#c19bVX75EK" opacity="1" fill="#000000" fill-opacity="0"></use>
        <g>
          <use xlink:href="#c19bVX75EK" opacity="1" fill-opacity="0" stroke="#000000" stroke-width="1" stroke-opacity="0"></use>
        </g>
      </g>
    </g>
  </g>
</svg>