<?xml version="1.0" encoding="utf-8"?>
<!-- Generator: Adobe Adobe Illustrator 28.1.0, SVG Export Plug-In . SVG Version: 6.00 Build 0)  -->
<svg version="1.1" id="图层_1" xmlns="http://www.w3.org/2000/svg" xmlns:xlink="http://www.w3.org/1999/xlink" x="0px" y="0px"
	 viewBox="0 0 646.3 232.44" style="enable-background:new 0 0 646.3 232.44;" xml:space="preserve">
<style type="text/css">
	.st0{fill:#4A819D;}
	.st1{fill:#52B84C;}
	.st2{fill:#329B5B;}
	.st3{fill:#4B63A9;}
</style>
<g id="XMLID_165_">
	<path id="XMLID_164_" class="st0" d="M82.41,71.49c2.95,0,5.35-2.4,5.35-5.35c0-2.95-2.39-5.35-5.35-5.35
		c-2.95,0-5.34,2.39-5.34,5.35C77.06,69.09,79.45,71.49,82.41,71.49"/>
	<path id="XMLID_163_" class="st0" d="M82.07,72.08c-3.19,0-5.78,2.58-5.78,5.78c0,3.19,2.59,5.77,5.78,5.77
		c3.18,0,5.78-2.58,5.78-5.77C87.84,74.66,85.25,72.08,82.07,72.08"/>
	<path id="XMLID_162_" class="st0" d="M81.37,106.82c3.03,0,5.48-2.45,5.48-5.47c0-3.03-2.45-5.47-5.48-5.47
		c-3.02,0-5.47,2.44-5.47,5.47C75.9,104.37,78.35,106.82,81.37,106.82"/>
	<path id="XMLID_161_" class="st0" d="M81.02,107.29c-3.22,0-5.84,2.61-5.84,5.84c0,3.22,2.61,5.84,5.84,5.84
		c3.23,0,5.84-2.61,5.84-5.84C86.86,109.91,84.25,107.29,81.02,107.29"/>
	<path id="XMLID_160_" class="st0" d="M94.85,72.92c-3.04,0-5.49,2.46-5.49,5.49c0,3.03,2.46,5.49,5.49,5.49
		c3.03,0,5.48-2.46,5.48-5.49C100.34,75.37,97.89,72.92,94.85,72.92"/>
	<path id="XMLID_159_" class="st0" d="M55.93,60.8c-2.95,0-5.34,2.39-5.34,5.35c0,2.95,2.39,5.35,5.34,5.35
		c2.95,0,5.35-2.4,5.35-5.35C61.28,63.19,58.88,60.8,55.93,60.8"/>
	<path id="XMLID_158_" class="st0" d="M56.28,83.63c3.19,0,5.78-2.58,5.78-5.78c0-3.19-2.59-5.78-5.78-5.78
		c-3.19,0-5.78,2.58-5.78,5.78C50.5,81.05,53.09,83.63,56.28,83.63"/>
	<path id="XMLID_157_" class="st0" d="M56.97,95.88c-3.02,0-5.47,2.44-5.47,5.47c0,3.02,2.45,5.47,5.47,5.47
		c3.02,0,5.48-2.45,5.48-5.47C62.44,98.32,59.99,95.88,56.97,95.88"/>
	<path id="XMLID_156_" class="st0" d="M57.32,107.29c-3.23,0-5.84,2.61-5.84,5.84c0,3.22,2.61,5.84,5.84,5.84
		c3.22,0,5.84-2.61,5.84-5.84C63.16,109.91,60.54,107.29,57.32,107.29"/>
	<path id="XMLID_155_" class="st0" d="M48.98,78.4c0-3.03-2.46-5.49-5.49-5.49c-3.03,0-5.49,2.45-5.49,5.49
		c0,3.03,2.46,5.49,5.49,5.49C46.52,83.89,48.98,81.44,48.98,78.4"/>
	<path id="XMLID_154_" class="st0" d="M55.59,59.59c2.84,0,5.15-2.31,5.15-5.15c0-2.85-2.31-5.15-5.15-5.15
		c-2.85,0-5.15,2.31-5.15,5.15C50.43,57.29,52.74,59.59,55.59,59.59"/>
	<path id="XMLID_153_" class="st0" d="M44.88,96.98c-2.71,0-4.9,2.19-4.9,4.9c0,2.7,2.19,4.89,4.9,4.89c2.7,0,4.9-2.19,4.9-4.89
		C49.77,99.17,47.57,96.98,44.88,96.98"/>
	<path id="XMLID_152_" class="st0" d="M82.76,49.29c-2.85,0-5.16,2.31-5.16,5.15c0,2.85,2.31,5.15,5.16,5.15
		c2.84,0,5.14-2.31,5.14-5.15C87.9,51.6,85.6,49.29,82.76,49.29"/>
	<path id="XMLID_151_" class="st0" d="M69.17,37.58c-2.69,0-4.87,2.18-4.87,4.87s2.18,4.86,4.87,4.86c2.69,0,4.87-2.18,4.87-4.86
		S71.86,37.58,69.17,37.58"/>
	<path id="XMLID_150_" class="st0" d="M93.47,96.98c-2.71,0-4.9,2.19-4.9,4.9c0,2.7,2.2,4.89,4.9,4.89c2.7,0,4.9-2.19,4.9-4.89
		C98.36,99.17,96.17,96.98,93.47,96.98"/>
	<path id="XMLID_149_" class="st1" d="M46.26,122.02c-1.83,0-3.32,1.49-3.32,3.32c0,1.84,1.48,3.32,3.32,3.32
		c1.83,0,3.33-1.48,3.33-3.32C49.58,123.51,48.09,122.02,46.26,122.02"/>
	<path id="XMLID_148_" class="st1" d="M16.6,65.63c-1.88,0-3.41,1.53-3.41,3.41c0,1.88,1.53,3.4,3.41,3.4c1.88,0,3.41-1.53,3.41-3.4
		C20.01,67.16,18.49,65.63,16.6,65.63"/>
	<path id="XMLID_147_" class="st1" d="M28.66,59.34c1.82,0,3.3-1.48,3.3-3.3c0-1.83-1.48-3.3-3.3-3.3c-1.82,0-3.3,1.48-3.3,3.3
		C25.36,57.85,26.84,59.34,28.66,59.34"/>
	<path id="XMLID_146_" class="st1" d="M18.27,57.4c0-1.68-1.36-3.04-3.04-3.04c-1.68,0-3.04,1.36-3.04,3.04
		c0,1.68,1.36,3.04,3.04,3.04C16.91,60.44,18.27,59.08,18.27,57.4"/>
	<path id="XMLID_145_" class="st1" d="M83.1,38.54c-2.27,0-4.11,1.84-4.11,4.11c0,2.27,1.84,4.11,4.11,4.11
		c2.27,0,4.11-1.84,4.11-4.11C87.21,40.38,85.37,38.54,83.1,38.54"/>
	<path id="XMLID_144_" class="st1" d="M55.24,38.54c-2.28,0-4.12,1.84-4.12,4.11c0,2.27,1.84,4.11,4.12,4.11
		c2.26,0,4.11-1.84,4.11-4.11C59.34,40.38,57.5,38.54,55.24,38.54"/>
	<path id="XMLID_143_" class="st1" d="M69.17,15.88c-1.74,0-3.16,1.41-3.16,3.16s1.41,3.15,3.16,3.15c1.74,0,3.16-1.41,3.16-3.15
		S70.91,15.88,69.17,15.88"/>
	<path id="XMLID_142_" class="st1" d="M83.45,33.93c1.64,0,2.98-1.34,2.98-2.98c0-1.65-1.34-2.98-2.98-2.98
		c-1.65,0-2.98,1.34-2.98,2.98C80.47,32.59,81.8,33.93,83.45,33.93"/>
	<path id="XMLID_141_" class="st1" d="M54.89,33.93c1.65,0,2.99-1.34,2.99-2.98c0-1.65-1.34-2.98-2.99-2.98
		c-1.65,0-2.98,1.34-2.98,2.98C51.91,32.59,53.24,33.93,54.89,33.93"/>
	<path id="XMLID_140_" class="st1" d="M123.11,54.36c-1.68,0-3.04,1.36-3.04,3.04c0,1.68,1.36,3.04,3.04,3.04
		c1.68,0,3.04-1.35,3.04-3.04C126.15,55.72,124.79,54.36,123.11,54.36"/>
	<path id="XMLID_139_" class="st1" d="M103.47,123.76c-1.34,0-2.42,1.08-2.42,2.42c0,1.34,1.08,2.42,2.42,2.42
		c1.34,0,2.42-1.08,2.42-2.42C105.9,124.84,104.81,123.76,103.47,123.76"/>
	<path id="XMLID_138_" class="st1" d="M92.08,122.02c-1.84,0-3.33,1.49-3.33,3.32c0,1.84,1.49,3.32,3.33,3.32
		c1.83,0,3.32-1.48,3.32-3.32C95.4,123.51,93.91,122.02,92.08,122.02"/>
	<path id="XMLID_137_" class="st1" d="M121.73,65.63c-1.88,0-3.41,1.53-3.41,3.41c0,1.88,1.53,3.4,3.41,3.4
		c1.88,0,3.41-1.53,3.41-3.4C125.14,67.16,123.61,65.63,121.73,65.63"/>
	<path id="XMLID_136_" class="st1" d="M108.65,63.08c-2.54,0-4.6,2.06-4.6,4.61c0,2.54,2.06,4.6,4.6,4.6c2.54,0,4.6-2.06,4.6-4.6
		C113.25,65.14,111.19,63.08,108.65,63.08"/>
	<path id="XMLID_135_" class="st1" d="M34.87,123.76c-1.34,0-2.42,1.08-2.42,2.42c0,1.34,1.08,2.42,2.42,2.42
		c1.34,0,2.42-1.08,2.42-2.42C37.29,124.84,36.21,123.76,34.87,123.76"/>
	<path id="XMLID_134_" class="st1" d="M109.68,59.34c1.82,0,3.3-1.48,3.3-3.3c0-1.83-1.48-3.3-3.3-3.3c-1.83,0-3.3,1.48-3.3,3.3
		C106.38,57.85,107.85,59.34,109.68,59.34"/>
	<path id="XMLID_133_" class="st1" d="M34.29,67.68c0-2.55-2.06-4.61-4.6-4.61c-2.54,0-4.6,2.06-4.6,4.61c0,2.54,2.06,4.6,4.6,4.6
		C32.23,72.28,34.29,70.22,34.29,67.68"/>
	<path id="XMLID_132_" class="st2" d="M45.57,109.37c-2.39,0-4.32,1.93-4.32,4.32c0,2.39,1.93,4.32,4.32,4.32
		c2.39,0,4.32-1.94,4.32-4.32C49.89,111.31,47.96,109.37,45.57,109.37"/>
	<path id="XMLID_131_" class="st2" d="M47.13,66.72c0-2.39-1.94-4.33-4.33-4.33c-2.39,0-4.32,1.94-4.32,4.33
		c0,2.39,1.93,4.33,4.32,4.33C45.19,71.06,47.13,69.12,47.13,66.72"/>
	<path id="XMLID_130_" class="st2" d="M19.35,89.4c-1.59,0-2.9,1.3-2.9,2.89c0,1.6,1.31,2.89,2.9,2.89c1.6,0,2.9-1.29,2.9-2.89
		C22.25,90.7,20.95,89.4,19.35,89.4"/>
	<path id="XMLID_129_" class="st2" d="M69.17,26.72c-2.22,0-4.02,1.8-4.02,4.02c0,2.22,1.8,4.01,4.02,4.01
		c2.22,0,4.02-1.8,4.02-4.01C73.19,28.52,71.39,26.72,69.17,26.72"/>
	<path id="XMLID_128_" class="st2" d="M105.54,99.02c-2.07,0-3.75,1.68-3.75,3.75c0,2.06,1.68,3.74,3.75,3.74
		c2.08,0,3.75-1.68,3.75-3.74C109.29,100.7,107.62,99.02,105.54,99.02"/>
	<path id="XMLID_127_" class="st2" d="M107.62,74.43c-2.73,0-4.93,2.21-4.93,4.93c0,2.72,2.2,4.93,4.93,4.93
		c2.72,0,4.93-2.21,4.93-4.93C112.55,76.63,110.34,74.43,107.62,74.43"/>
	<path id="XMLID_126_" class="st2" d="M118.99,89.4c-1.6,0-2.9,1.3-2.9,2.89c0,1.6,1.3,2.89,2.9,2.89c1.6,0,2.9-1.29,2.9-2.89
		C121.89,90.7,120.59,89.4,118.99,89.4"/>
	<path id="XMLID_125_" class="st2" d="M95.54,62.4c-2.39,0-4.33,1.94-4.33,4.33c0,2.39,1.94,4.33,4.33,4.33
		c2.39,0,4.33-1.94,4.33-4.33C99.86,64.33,97.93,62.4,95.54,62.4"/>
	<path id="XMLID_124_" class="st2" d="M32.79,99.02c-2.07,0-3.75,1.68-3.75,3.75c0,2.06,1.68,3.74,3.75,3.74
		c2.07,0,3.75-1.68,3.75-3.74C36.54,100.7,34.86,99.02,32.79,99.02"/>
	<path id="XMLID_123_" class="st2" d="M35.65,79.36c0-2.73-2.2-4.93-4.93-4.93c-2.72,0-4.93,2.2-4.93,4.93
		c0,2.72,2.21,4.93,4.93,4.93C33.45,84.29,35.65,82.08,35.65,79.36"/>
	<path id="XMLID_122_" class="st2" d="M92.77,109.37c-2.39,0-4.32,1.93-4.32,4.32c0,2.39,1.93,4.32,4.32,4.32
		c2.38,0,4.32-1.94,4.32-4.32C97.09,111.31,95.15,109.37,92.77,109.37"/>
	<path id="XMLID_121_" class="st3" d="M81.72,83.06c-1.93,0-3.65,0.85-4.84,2.17c-0.62-1.15-1.5-2.14-2.55-2.91
		c1.12-1.23,1.8-2.86,1.8-4.65c0-2.78-1.63-5.16-3.98-6.28c1.92-1.05,3.22-3.1,3.22-5.44c0-3.42-2.78-6.2-6.2-6.2
		c-3.42,0-6.2,2.77-6.2,6.2c0,2.34,1.3,4.38,3.22,5.44c-2.35,1.11-3.98,3.5-3.98,6.28c0,1.79,0.68,3.42,1.79,4.65
		c-1.06,0.77-1.92,1.76-2.55,2.91c-1.19-1.32-2.91-2.17-4.84-2.17c-3.59,0-6.5,2.91-6.5,6.49c0,3.59,2.91,6.5,6.5,6.5
		c1.99,0,3.77-0.9,4.96-2.32c0.63,1.09,1.48,2.03,2.5,2.77c-1.12,1.21-1.81,2.84-1.81,4.63c0,3.78,3.06,6.84,6.85,6.84
		c3.78,0,6.85-3.07,6.85-6.84c0-1.77-0.68-3.37-1.79-4.59c1.04-0.73,1.92-1.69,2.55-2.8c1.19,1.42,2.97,2.32,4.97,2.32
		c3.58,0,6.49-2.91,6.49-6.5C88.2,85.97,85.3,83.06,81.72,83.06"/>
	<path id="XMLID_120_" class="st3" d="M94.16,84.16c-3.28,0-5.95,2.66-5.95,5.94c0,3.28,2.67,5.94,5.95,5.94
		c3.28,0,5.94-2.66,5.94-5.94C100.11,86.82,97.44,84.16,94.16,84.16"/>
	<path id="XMLID_119_" class="st3" d="M44.17,84.16c-3.27,0-5.94,2.66-5.94,5.94c0,3.28,2.66,5.94,5.94,5.94
		c3.29,0,5.95-2.66,5.95-5.94C50.12,86.82,47.46,84.16,44.17,84.16"/>
	<path id="XMLID_118_" class="st3" d="M69.17,107.96c-2.78,0-5.04,2.26-5.04,5.04c0,2.78,2.26,5.03,5.04,5.03
		c2.78,0,5.04-2.25,5.04-5.03C74.21,110.22,71.95,107.96,69.17,107.96"/>
	<path id="XMLID_117_" class="st3" d="M69.17,133.57c-1.55,0-2.81,1.25-2.81,2.8c0,1.56,1.26,2.81,2.81,2.81
		c1.55,0,2.8-1.25,2.8-2.81C71.97,134.82,70.72,133.57,69.17,133.57"/>
	<path id="XMLID_116_" class="st3" d="M69.15,146c-1.17,0-2.12,0.95-2.12,2.12c0,1.17,0.95,2.12,2.12,2.12
		c1.17,0,2.12-0.95,2.12-2.12C71.27,146.95,70.32,146,69.15,146"/>
	<path id="XMLID_115_" class="st3" d="M69.17,120.72c-2.18,0-3.95,1.77-3.95,3.95c0,2.18,1.77,3.95,3.95,3.95
		c2.18,0,3.95-1.77,3.95-3.95C73.12,122.48,71.35,120.72,69.17,120.72"/>
	<path id="XMLID_114_" class="st3" d="M69.17,59.67c3,0,5.43-2.42,5.43-5.42c0-3-2.42-5.43-5.43-5.43c-3,0-5.43,2.43-5.43,5.43
		C63.74,57.25,66.17,59.67,69.17,59.67"/>
	<path id="XMLID_113_" class="st3" d="M106.59,86.07c-2.74,0-4.96,2.21-4.96,4.95c0,2.74,2.22,4.96,4.96,4.96
		c2.74,0,4.95-2.22,4.95-4.96C111.54,88.28,109.32,86.07,106.59,86.07"/>
	<path id="XMLID_112_" class="st3" d="M31.75,86.07c-2.74,0-4.95,2.21-4.95,4.95c0,2.74,2.22,4.96,4.95,4.96
		c2.73,0,4.95-2.22,4.95-4.96C36.7,88.28,34.48,86.07,31.75,86.07"/>
	<path id="XMLID_111_" class="st3" d="M414.74,110.27c3.73,0,6.01-1.37,8.1-3.53l-2.25-2.28c-1.71,1.6-3.28,2.56-5.73,2.56
		c-3.82,0-6.59-3.16-6.59-7.07V99.9c0-3.91,2.79-7.05,6.59-7.05c2.28,0,3.99,1,5.59,2.48l2.25-2.59c-1.91-1.83-4.13-3.11-7.81-3.11
		c-6.04,0-10.29,4.65-10.29,10.32v0.06C404.6,105.74,408.93,110.27,414.74,110.27"/>
	<polyline id="XMLID_110_" class="st3" points="430.01,101.52 439.53,101.52 439.53,109.93 443.03,109.93 443.03,89.98 
		439.53,89.98 439.53,98.28 430.01,98.28 430.01,89.98 426.5,89.98 426.5,109.93 430.01,109.93 	"/>
	<path class="st3" d="M451.94,105.11h9.43l2.03,4.81h3.7l-8.78-20.09h-3.25l-8.78,20.09h3.59 M456.65,94.03l3.45,7.98h-6.87"/>
	<path class="st3" d="M474.02,102.98h4.39l4.9,6.96h4.16l-5.39-7.55c2.77-0.79,4.73-2.76,4.73-6.04v-0.06c0-1.74-0.6-3.22-1.65-4.3
		c-1.28-1.25-3.25-1.99-5.76-1.99h-8.89v19.95h3.51 M474.02,93.17h5.1c2.59,0,4.13,1.17,4.13,3.31v0.06c0,2.03-1.6,3.34-4.11,3.34
		h-5.13"/>
	<polyline id="XMLID_105_" class="st3" points="496.01,109.93 499.55,109.93 499.55,93.23 505.88,93.23 505.88,89.98 489.69,89.98 
		489.69,93.23 496.01,93.23 	"/>
	<polyline id="XMLID_104_" class="st3" points="524.51,106.8 513.08,106.8 513.08,101.44 523.08,101.44 523.08,98.3 513.08,98.3 
		513.08,93.12 524.37,93.12 524.37,89.98 509.57,89.98 509.57,109.93 524.51,109.93 	"/>
	<path class="st3" d="M532.31,102.98h4.39l4.9,6.96h4.16l-5.39-7.55c2.77-0.79,4.73-2.76,4.73-6.04v-0.06c0-1.74-0.6-3.22-1.65-4.3
		c-1.28-1.25-3.25-1.99-5.76-1.99h-8.89v19.95h3.5 M532.31,93.17h5.1c2.59,0,4.13,1.17,4.13,3.31v0.06c0,2.03-1.6,3.34-4.11,3.34
		h-5.13"/>
	<polyline id="XMLID_101_" class="st3" points="564.48,106.8 553.05,106.8 553.05,101.44 563.05,101.44 563.05,98.3 553.05,98.3 
		553.05,93.12 564.34,93.12 564.34,89.98 549.54,89.98 549.54,109.93 564.48,109.93 	"/>
	<path class="st3" d="M586.39,99.96V99.9c0-5.62-4.34-9.92-10.61-9.92h-7.44v19.95h7.44C582.05,109.93,586.39,105.57,586.39,99.96
		 M571.85,93.17h3.93c4.19,0,6.93,2.88,6.93,6.79v0.06c0,3.91-2.74,6.73-6.93,6.73h-3.93"/>
	<path class="st3" d="M405.48,123.55v19.95h3.5v-6.41h3.96c4.39,0,7.98-2.33,7.98-6.81v-0.06c0-4.02-2.9-6.67-7.58-6.67
		 M417.36,130.31v0.06c0,2.08-1.65,3.56-4.3,3.56h-4.08v-7.18h4.08C415.68,126.75,417.36,127.97,417.36,130.31"/>
	<path class="st3" d="M428.01,136.55h4.39l4.9,6.96h4.16l-5.39-7.55c2.77-0.79,4.73-2.77,4.73-6.04v-0.06c0-1.74-0.6-3.22-1.66-4.3
		c-1.28-1.25-3.25-1.99-5.76-1.99h-8.89v19.95h3.5 M428.01,126.75h5.1c2.59,0,4.13,1.17,4.13,3.31v0.06c0,2.03-1.6,3.34-4.11,3.34
		h-5.13"/>
	<path class="st3" d="M454.62,143.85c6.13,0,10.46-4.7,10.46-10.32v-0.06c0-5.62-4.27-10.26-10.4-10.26
		c-6.13,0-10.46,4.7-10.46,10.32v0.06C444.22,139.2,448.5,143.85,454.62,143.85 M447.9,133.47c0-3.88,2.77-7.04,6.73-7.04
		s6.79,3.22,6.79,7.1v0.06c0,3.88-2.77,7.01-6.73,7.01c-3.96,0-6.79-3.19-6.79-7.07"/>
	<polyline id="XMLID_92_" class="st3" points="472.82,135.38 482.89,135.38 482.89,132.19 472.82,132.19 472.82,126.75 
		484.17,126.75 484.17,123.56 469.32,123.56 469.32,143.5 472.82,143.5 	"/>
	<polyline id="XMLID_91_" class="st3" points="503.08,140.37 491.65,140.37 491.65,135.01 501.66,135.01 501.66,131.88 
		491.65,131.88 491.65,126.69 502.94,126.69 502.94,123.55 488.15,123.55 488.15,143.51 503.08,143.51 	"/>
	<path id="XMLID_90_" class="st3" d="M514.31,140.68c-2.45,0-4.39-0.94-6.3-2.59l-2.11,2.51c2.39,2.13,5.27,3.19,8.32,3.19
		c4.19,0,7.13-2.22,7.13-5.95v-0.06c0-3.31-2.17-4.81-6.38-5.84c-3.85-0.91-4.76-1.6-4.76-3.14v-0.06c0-1.31,1.2-2.36,3.25-2.36
		c1.82,0,3.62,0.71,5.41,2.05l1.88-2.65c-2.02-1.62-4.33-2.51-7.24-2.51c-3.96,0-6.81,2.37-6.81,5.79v0.06
		c0,3.68,2.39,4.93,6.64,5.95c3.7,0.86,4.5,1.63,4.5,3.05v0.06C517.84,139.66,516.47,140.68,514.31,140.68"/>
	<path id="XMLID_89_" class="st3" d="M531.57,135.07c3.7,0.86,4.51,1.63,4.51,3.05v0.06c0,1.48-1.37,2.51-3.54,2.51
		c-2.45,0-4.39-0.94-6.3-2.59l-2.11,2.51c2.39,2.14,5.27,3.19,8.32,3.19c4.19,0,7.13-2.22,7.13-5.96v-0.06
		c0-3.31-2.17-4.81-6.38-5.84c-3.85-0.91-4.76-1.6-4.76-3.14v-0.06c0-1.31,1.2-2.36,3.25-2.36c1.82,0,3.62,0.71,5.42,2.05l1.88-2.65
		c-2.03-1.62-4.33-2.51-7.24-2.51c-3.96,0-6.82,2.37-6.82,5.79v0.06C524.93,132.79,527.32,134.04,531.57,135.07"/>
	<rect id="XMLID_62_" x="543.9" y="123.55" class="st3" width="3.51" height="19.95"/>
	<path class="st3" d="M562.31,123.21c-6.12,0-10.46,4.7-10.46,10.32v0.06c0,5.61,4.27,10.26,10.4,10.26
		c6.13,0,10.46-4.7,10.46-10.32v-0.06C572.72,127.86,568.44,123.21,562.31,123.21 M569.04,133.59c0,3.88-2.77,7.01-6.73,7.01
		c-3.96,0-6.78-3.19-6.78-7.07v-0.06c0-3.88,2.77-7.04,6.73-7.04c3.96,0,6.79,3.22,6.79,7.1"/>
	<polyline id="XMLID_33_" class="st3" points="590.88,137.35 580.19,123.56 576.95,123.56 576.95,143.5 580.4,143.5 580.4,129.31 
		591.4,143.5 594.33,143.5 594.33,123.56 590.88,123.56 	"/>
	<path class="st3" d="M618.55,143.51l-8.78-20.1h-3.25l-8.78,20.1h3.59l2.05-4.82h9.44l2.02,4.82 M604.67,135.58l3.42-7.98
		l3.45,7.98"/>
	<polyline id="XMLID_30_" class="st3" points="625.32,123.55 621.81,123.55 621.81,143.51 635.81,143.51 635.81,140.31 
		625.32,140.31 	"/>
	<path class="st3" d="M409.41,172.26h9.43l2.03,4.81h3.7l-8.78-20.09h-3.25l-8.78,20.09h3.59 M414.11,161.17l3.45,7.98h-6.87"/>
	<path id="XMLID_27_" class="st3" d="M435.94,160.01c2.28,0,3.99,1,5.59,2.48l2.25-2.59c-1.91-1.82-4.14-3.1-7.81-3.1
		c-6.04,0-10.29,4.64-10.29,10.32v0.06c0,5.73,4.33,10.26,10.15,10.26c3.73,0,6.01-1.37,8.1-3.53l-2.25-2.28
		c-1.71,1.6-3.27,2.57-5.73,2.57c-3.82,0-6.59-3.17-6.59-7.07v-0.06C429.35,163.14,432.15,160.01,435.94,160.01"/>
	<path id="XMLID_26_" class="st3" d="M456.28,177.42c3.73,0,6.01-1.37,8.1-3.53l-2.25-2.28c-1.71,1.6-3.28,2.56-5.73,2.56
		c-3.82,0-6.59-3.16-6.59-7.07v-0.06c0-3.91,2.79-7.05,6.59-7.05c2.28,0,3.99,1,5.59,2.48l2.25-2.59c-1.91-1.83-4.13-3.11-7.81-3.11
		c-6.04,0-10.29,4.65-10.29,10.32v0.06C446.13,172.89,450.46,177.42,456.28,177.42"/>
	<path class="st3" d="M477.13,177.42c6.13,0,10.46-4.7,10.46-10.32v-0.06c0-5.62-4.28-10.26-10.4-10.26
		c-6.13,0-10.46,4.7-10.46,10.32v0.06C466.72,172.78,471,177.42,477.13,177.42 M470.4,167.05c0-3.88,2.77-7.04,6.73-7.04
		c3.96,0,6.79,3.22,6.79,7.1v0.06c0,3.88-2.77,7.01-6.73,7.01c-3.96,0-6.79-3.19-6.79-7.07"/>
	<path id="XMLID_23_" class="st3" d="M508.01,168.44v-11.31h-3.51v11.49c0,3.68-1.91,5.53-5.01,5.53c-3.13,0-5.04-1.97-5.04-5.67
		v-11.34h-3.51v11.49c0,5.79,3.31,8.78,8.5,8.78C504.65,177.39,508.01,174.4,508.01,168.44"/>
	<polyline id="XMLID_22_" class="st3" points="516.07,157.13 512.82,157.13 512.82,177.08 516.27,177.08 516.27,162.89 
		527.27,177.08 530.21,177.08 530.21,157.13 526.76,157.13 526.76,170.92 	"/>
	<polyline id="XMLID_21_" class="st3" points="550.09,157.13 533.9,157.13 533.9,160.38 540.23,160.38 540.23,177.08 543.77,177.08 
		543.77,160.38 550.09,160.38 	"/>
	<path class="st3" d="M558.58,156.99l-8.78,20.1h3.59l2.05-4.82h9.44l2.02,4.82h3.7l-8.78-20.1 M556.72,169.16l3.42-7.98l3.45,7.98"
		/>
	<polyline id="XMLID_18_" class="st3" points="587.67,170.92 576.97,157.13 573.73,157.13 573.73,177.08 577.18,177.08 
		577.18,162.89 588.18,177.08 591.11,177.08 591.11,157.13 587.67,157.13 	"/>
	<polyline id="XMLID_17_" class="st3" points="594.81,160.38 601.13,160.38 601.13,177.08 604.67,177.08 604.67,160.38 611,160.38 
		611,157.13 594.81,157.13 	"/>
	<path id="XMLID_16_" class="st3" d="M622.28,165.51c-3.85-0.91-4.76-1.6-4.76-3.14v-0.06c0-1.31,1.2-2.36,3.25-2.36
		c1.82,0,3.62,0.71,5.42,2.05l1.88-2.65c-2.02-1.62-4.33-2.51-7.24-2.51c-3.96,0-6.82,2.37-6.82,5.79v0.06
		c0,3.68,2.39,4.93,6.64,5.95c3.7,0.86,4.51,1.63,4.51,3.05v0.06c0,1.48-1.37,2.51-3.54,2.51c-2.45,0-4.39-0.94-6.3-2.59l-2.11,2.51
		c2.4,2.13,5.27,3.19,8.32,3.19c4.19,0,7.13-2.22,7.13-5.96v-0.06C628.66,168.05,626.49,166.54,622.28,165.51"/>
	<path class="st3" d="M347.33,90.44c-0.16-0.29-0.45-0.46-0.76-0.46h-30.23c-0.33,0-0.61,0.17-0.77,0.47
		c-8.18,15.55-22.29,61.5-26.82,80.31c-0.01,0.07-0.03,0.14-0.03,0.2v4.54c0,0.48,0.39,0.87,0.87,0.87h23.05
		c0.4,0,0.73-0.27,0.82-0.66c0.46-1.87,0.92-3.91,1.44-6.07c0.72-3.13,1.53-7.22,2.37-10.69h26.78c0.74,3.08,1.37,6.76,1.99,9.65
		c0.55,2.55,1.05,4.94,1.57,7.11c0.1,0.39,0.45,0.66,0.84,0.66h24.85c0.48,0,0.87-0.39,0.87-0.87v-4.54c0-0.06-0.01-0.13-0.02-0.2
		C369.41,151.09,355.72,105.91,347.33,90.44 M321.48,140.72c1.17-4.73,9.13-31.04,9.13-31.04h0.84c0,0,7.58,26.34,8.63,31.04"/>
	<path class="st3" d="M245.18,89.08c-15.04,0-26.03,2.26-30.26,4.35c-0.25,0.12-0.92,0.52-0.92,1.18v103.72
		c0,0.48,0.39,0.86,0.88,0.86h24.61c0.47,0,0.85-0.38,0.85-0.86v-21.97h11.92c23.14,0,34.38-20.5,34.38-43.32
		C286.64,104.29,272.06,89.08,245.18,89.08 M247.43,156.83h-7.08v-47.5h7.51c10.82,0,12.35,11.85,12.35,23.72
		C260.2,144.68,258.68,156.83,247.43,156.83"/>
	<path id="XMLID_11_" class="st3" d="M201.75,95.04c-4.94-2.75-17.29-5.95-27.82-5.95c-27.36,0-43.02,19.02-43.02,44.1
		c0,25.06,16.52,44.08,43.02,44.08c10.69,0,22.88-3.34,27.82-5.96c0.31-0.17,0.52-0.47,0.52-0.79v-18.97c0-0.48-0.4-0.87-0.86-0.87
		h-7.57c-0.07,0-0.15,0.01-0.22,0.03c0,0-7.07,6.32-15.65,6.32c-14.28,0-19.99-11.93-19.99-23.84c0-11.93,5.71-23.86,19.99-23.86
		c8.57,0,15.65,6.31,15.65,6.31c0.07,0.02,0.15,0.03,0.22,0.03h7.57c0.47,0,0.86-0.39,0.86-0.87V95.83
		C202.27,95.48,202.06,95.2,201.75,95.04"/>
	<path id="XMLID_10_" class="st3" d="M414.85,216.18c-3.81,0-6.57-3.16-6.57-7.06v-0.06c0-3.9,2.79-7.03,6.57-7.03
		c2.28,0,3.99,0.99,5.58,2.48l2.25-2.59c-1.91-1.82-4.13-3.1-7.8-3.1c-6.04,0-10.28,4.64-10.28,10.3v0.06
		c0,5.72,4.33,10.25,10.13,10.25c3.73,0,6.01-1.37,8.09-3.53l-2.25-2.28C418.87,215.21,417.3,216.18,414.85,216.18"/>
	<path class="st3" d="M433.28,199.01l-8.77,20.07h3.59l2.05-4.81h9.42l2.02,4.81h3.7l-8.77-20.07 M431.43,211.17l3.42-7.97
		l3.44,7.97"/>
	<polyline id="XMLID_7_" class="st3" points="462.36,212.93 451.68,199.15 448.44,199.15 448.44,219.08 451.88,219.08 
		451.88,204.91 462.87,219.08 465.81,219.08 465.81,199.15 462.36,199.15 	"/>
	<path class="st3" d="M478,199.01l-8.77,20.07h3.59l2.05-4.81h9.42l2.02,4.81h3.7l-8.77-20.07 M476.15,211.17l3.42-7.97l3.44,7.97"
		/>
	<path class="st3" d="M500.73,199.15h-7.43v19.93h7.43c6.26,0,10.59-4.35,10.59-9.96v-0.06
		C511.32,203.45,506.99,199.15,500.73,199.15 M507.65,209.18c0,3.9-2.74,6.72-6.92,6.72h-3.93v-13.55h3.93
		c4.18,0,6.92,2.88,6.92,6.78"/>
	<path class="st3" d="M521.21,199.01l-8.77,20.07h3.59l2.05-4.81h9.42l2.02,4.81h3.7l-8.77-20.07 M519.36,211.17l3.42-7.97
		l3.44,7.97"/>
</g>
</svg>
